<svg xmlns="http://www.w3.org/2000/svg" xmlns:xlink="http://www.w3.org/1999/xlink" width="111" height="150" fill="none" viewBox="0 0 111 174"><defs><path id="reuse-0" fill="#A1E8FE" fill-rule="evenodd" d="M72.896 30.234c-13.81.015-29.291-.973-44.347-3.482L8.915 60.058C2.117 73.456-.454 87.813 3.242 101.88c3.62 14.053 13.627 27.771 30.036 39.542 20.836-.684 37.428-6.342 49.154-15.588 11.786-9.232 18.767-21.976 21.899-36.272l5.673-37.154C96.697 46.02 83.907 38.112 72.896 30.234Z" clip-rule="evenodd"/></defs><use xlink:href="#reuse-0" fill-rule="evenodd" clip-rule="evenodd"/><use xlink:href="#reuse-0" fill-rule="evenodd" clip-rule="evenodd"/><path fill="#A1E8FE" fill-rule="evenodd" d="m8.915 60.058 19.634-33.306c15.056 2.509 30.553 3.513 44.347 3.482 10.995 7.878 23.8 15.786 37.078 22.174l-5.673 37.154a106.823 106.823 0 0 1-.76 3.148L57.414 73.639 7.47 63.054a77.387 77.387 0 0 1 1.445-2.996Z" clip-rule="evenodd"/><path fill="#C2F1FF" fill-rule="evenodd" d="m8.915 60.058 19.634-33.306c15.056 2.509 30.538 3.513 44.332 3.482l-15.467 43.39L7.47 63.054a77.387 77.387 0 0 1 1.445-2.996Z" clip-rule="evenodd"/><path fill="#84DCF6" fill-rule="evenodd" d="m7.47 63.054 49.944 10.57 46.142 19.07c-3.559 13.536-10.783 25.505-22.463 34.143-11.634 8.654-27.755 13.916-47.83 14.585-15.786-11.345-25.671-24.485-29.595-37.99-4-13.52-2.13-27.36 3.802-40.378Z" clip-rule="evenodd"/><path fill="#D8F6FF" fill-rule="evenodd" d="m7.47 63.054 49.944 10.57-24.15 67.783c-15.787-11.33-25.672-24.47-29.596-37.975-4-13.52-2.145-27.36 3.802-40.378Z" clip-rule="evenodd"/><path fill="#2B7396" fill-rule="evenodd" d="m7.652 59.738.03-.06L27.5 26.416c.213-.365.76-.563 1.278-.471 14.919 2.494 30.264 3.497 43.967 3.497l.775.244c10.92 7.817 23.619 15.634 36.774 21.945.472.229.761.685.7 1.095l-5.506 37.2-.015.03.015.046c-3.133 14.585-10.22 27.649-22.234 37.154-11.954 9.52-28.911 15.375-50.172 16.12l-.867-.258C15.5 130.959 5.31 116.876 1.676 102.474-2.05 88.056.656 73.365 7.652 59.738Zm95.493 29.398 5.734-36.363-9.14-4.684A263.746 263.746 0 0 1 80.91 36.743l-8.289-5.703-10.296-.167c-7.315-.259-14.92-.79-22.569-1.688L29.233 27.71 10.147 60.392 7.88 65.35c-4.837 11.665-6.297 23.923-3.103 35.922 3.163 12 11.041 23.71 23.786 34.158l5.368 4.121 6.966-.441c34.142-3.011 53.959-20.972 60.894-44.818l1.353-5.156Z" clip-rule="evenodd"/><path fill="#115474" fill-opacity=".15" fill-rule="evenodd" d="m35.18 143.171 8.12-23.558-23.298-10.782-2.525-6.525-.107-.045.061-.076-.015-.031.03.015L77.58 32.516c1.567 1.064 3.148 2.144 4.76 3.209L77.52 46.72l.927-1.977-14.433 33.58-.106-.517-3.194 7.3 2.51.912 11.695-29.063-10.813 29.383 6.341 2.327 7.422-21.2-6.798 21.412 1.384.502L86.37 44.211 74.645 90.185l9.855 3.62 1.414-6.372-1.034 6.509 4.73 1.734 1.125-7.072-.091 7.452 2.722 1.003 3.878-52.255-2.965 52.59.258.091-.228.259.228-.228-.532 5.931-3.498 4.197-.122 10.89-4.167-1.825.776-4.852-20.881 25.033c-8.882 3.498-19.239 5.673-30.934 6.281Zm-3.757-66.05-2.98-1.231 25.884-26.31L31.423 77.12Zm60.605-4.456-1.11-.517 2.676-29.428c.137.076.259.152.38.228l-1.946 29.717Zm-15.239-7.072-1.125-.197 9.93-27.573c.123.076.26.152.381.243l-9.186 27.528Z" clip-rule="evenodd"/><path fill="#FFCB00" fill-rule="evenodd" d="m59.543 74.825 15.893-34.051L59.893 76.71l-.35-1.886Z" clip-rule="evenodd"/><path fill="#F39401" fill-rule="evenodd" d="m52.304 68.27 5.992 2.95L92.864 2.359 52.304 68.27Z" clip-rule="evenodd"/><path fill="#FFCB00" fill-rule="evenodd" d="m43.225 98.17-2.738 6.783-23.649-11.498-2.114-6.768 28.5 11.483Z" clip-rule="evenodd"/><path fill="#FFB300" fill-rule="evenodd" d="m55.36 67.875 36.82 14.067-77.273 82.125 26.63-64.954-26.858-12.32L94.583 0 55.36 67.875Z" clip-rule="evenodd"/><path fill="#F39401" fill-rule="evenodd" d="m92.18 81.988-.958 6.022-76.3 85.486.152-9.916L91.07 82.977l1.11-.989Z" clip-rule="evenodd"/><path fill="#FF9B00" fill-rule="evenodd" d="M72.029 76.939 87.8 27.862 69.748 76.148l2.281.79Z" clip-rule="evenodd"/><path fill="#F39401" fill-rule="evenodd" d="m90.507 85.273 8.167-57.03-7.513 59.692-.654-2.662Z" clip-rule="evenodd"/><path fill="#FFCB00" fill-rule="evenodd" d="m30.252 96.39 32.591-45.123-27.405 48.88-5.186-3.757ZM75.588 49.366l19.284-45.32-18.159 45.518-1.125-.198ZM90.37 56.21l7.33-45.883-6.25 46.415-1.08-.532ZM38.495 98.52l13.718-21.003-10.89 22.067-2.828-1.065ZM19.895 89.76l21.596-30.736-24.41 29.123 2.814 1.612Z" clip-rule="evenodd"/><path fill="#F39401" fill-rule="evenodd" d="m78.082 98.9 6.16-27.162-8.35 29.032 2.19-1.87ZM61.307 116.161l12.517-36.348-10.935 37.549-1.582-1.201Z" clip-rule="evenodd"/><path fill="#FFCB00" fill-rule="evenodd" d="M47.802 57.837 72.73 24.972 48.73 58.826l-.928-.989Z" clip-rule="evenodd"/><path fill="#F39401" fill-rule="evenodd" d="m62.752 60.59 17.11-32.196-16.836 34.082-.274-1.886Z" clip-rule="evenodd"/><path fill="#FFCB00" fill-rule="evenodd" d="m41.141 135.977 11.513-23.375-8.7 24.075-2.813-.7ZM60.486 92.786l17.14-41.32-16.106 42.05-1.034-.73ZM17.431 162.516l17.14-41.336-16.105 42.066-1.035-.73ZM55.391 33.306 30.526 61.26l-2.89-1.232 27.755-26.72ZM86.523 103.325 89 72.939l-6.509 28.531 4.03 1.855Z" clip-rule="evenodd"/></svg>
