<svg xmlns="http://www.w3.org/2000/svg" width="214" height="154" fill="none" viewBox="0 0 214 154"><path fill="#DEEBEF" fill-rule="evenodd" d="M51.89 131.359c2.934-5.262 2.372-12.044-.198-17.032-.183-.411.076-1.339.167-1.521l2.266-4.076c1.262-2.25.091-4.866-2.616-5.855l-3.832-1.384 1.597-2.859c1.155-2.068.425-4.41-1.582-5.763l2.053-2.068c1.582 1.064 3.802 1.43 5.885.76l3.361-1.08-.426-.973-2.083.228.32-.79-.062-.579-2.235.715c-.958.304-1.977.137-2.692-.365l.472-.471c.76-.776.638-1.886-.274-2.494-.532-.365-1.217-.456-1.855-.32 0-.912.669-1.779 1.764-2.129l3.27-1.049-.366-.532.076-.67-1.125-.212-.213-.913-2.737.882c-3.072.989-4.654 3.833-3.528 6.342l.182.41-3.726 3.741c-2.798-.684-5.915.441-7.178 2.723l-1.596 2.859-3.011-1.095c-2.692-.974-5.901.06-7.148 2.311l-2.281 4.076c-.152.289-.608.897-.745.927-7.513 1.324-14.022 5.201-17.26 11.011-4.974 8.927-.61 19.481 9.732 25.183.198 1.491 1.293 2.829 3.057 3.468 1.961.714 4.182.349 5.733-.761 11.117 2.023 24.013-2.007 28.833-10.645zm-29.595 2.829c-8.379-3.209-12.394-10.706-8.957-16.881 3.27-5.855 12.09-8.455 20.272-6.204l3.635 1.323c.912.395 1.81.821 2.387 1.155 5.444 3.346 7.452 9.733 4.517 14.98-3.392 6.068-14.28 8.303-21.854 5.627zm-4.592 7.421c-1.886-.684-2.707-2.525-1.825-4.091.882-1.582 3.117-2.296 5.003-1.612 1.886.684 2.707 2.525 1.825 4.091-.882 1.566-3.117 2.296-5.003 1.612zm27.054-41.182l-6.828-2.479 1.581-2.859c.411-.73 1.232-1.201 2.13-1.308-.153.624.075 1.293.714 1.719.913.608 2.266.486 3.042-.29l.228-.242c.897.608 1.232 1.672.715 2.615l-1.582 2.844zm-4.608 5.003c.532-.958-.547.958 0 0zm-1.962 1.126l-.456.821c-.258.456-.897.654-1.43.456a.909.909 0 01-.562-.487.776.776 0 01.03-.684l.457-.821c-.487-.532-.624-1.262-.259-1.916.532-.958 1.901-1.399 3.057-.989 1.14.411 1.642 1.536 1.11 2.494-.365.669-1.125 1.08-1.947 1.126z" clip-rule="evenodd"/><path fill="#3D3D3D" fill-rule="evenodd" d="M49.593 125.687c2.859-6.372 2.205-14.615-.441-20.728-.183-.502.06-1.627.152-1.84l2.22-4.928c1.232-2.722.016-5.93-2.691-7.147l-3.863-1.749 1.551-3.452c1.125-2.494.365-5.368-1.657-7.026l2.022-2.494a5.961 5.961 0 005.9 1.004l3.361-1.278-.44-1.201-2.084.258.304-.942-.076-.715-2.22.851a2.645 2.645 0 01-2.692-.486l.456-.563a2.168 2.168 0 00-.304-3.041 2.14 2.14 0 00-1.855-.426c-.015-1.11.639-2.16 1.733-2.57l3.255-1.232-.365-.654.06-.806-1.125-.274-.228-1.11-2.737 1.034c-3.057 1.156-4.608 4.593-3.452 7.665l.182.502-3.665 4.501c-2.813-.882-5.915.441-7.147 3.209L32.196 83.5l-3.027-1.369c-2.707-1.232-5.9-.015-7.132 2.707l-2.22 4.927c-.152.35-.609 1.095-.73 1.11-7.498 1.506-13.96 6.13-17.124 13.155-4.866 10.797-.35 23.693 10.083 30.795.228 1.81 1.338 3.468 3.117 4.274 1.977.897 4.197.486 5.733-.852 11.132 2.6 23.983-2.114 28.697-12.561zm-29.594 3.026c-8.425-4.015-12.561-13.2-9.2-20.667 3.178-7.072 11.983-10.128 20.21-7.269l3.65 1.657c.913.487 1.825 1.019 2.418 1.445 5.505 4.152 7.589 11.938 4.73 18.279-3.316 7.346-14.189 9.916-21.808 6.555zm-4.486 8.957a3.774 3.774 0 01-1.886-5.003 3.776 3.776 0 014.988-1.901c1.901.851 2.738 3.102 1.886 5.003a3.768 3.768 0 01-4.988 1.901zm26.492-49.713l-6.874-3.118 1.55-3.452a2.706 2.706 0 012.115-1.566c-.152.76.106 1.566.745 2.098.928.76 2.281.624 3.041-.304l.244-.304a2.702 2.702 0 01.745 3.194l-1.566 3.452zm-4.532 6.022c.517-1.156-.533 1.156 0 0zm-1.947 1.338l-.441.989c-.243.547-.882.79-1.43.532a1.05 1.05 0 01-.562-.608 1.14 1.14 0 01.03-.837l.441-.988a2.278 2.278 0 01-.273-2.342 2.306 2.306 0 013.041-1.156 2.287 2.287 0 011.14 3.041 2.272 2.272 0 01-1.946 1.37z" clip-rule="evenodd"/><path fill="#DEEBEF" fill-rule="evenodd" d="M185.943 129.823c-2.539-.836-3.695-2.935-2.889-6.904v-.015c.259-.761.624-1.43 1.247-1.917.259.213.532.411.806.609l.274 2.874 2.904 1.201.746-2.144c1.49.472 3.087.7 4.683.639 6.525-.243 11.269-5.353 10.22-11.162a9.922 9.922 0 00-1.004-2.92l-.76-1.597-.213-.304a21.05 21.05 0 00-.684-1.46c-.152-.061-.305-.122-.457-.198-.015 0-.03-.015-.045-.015l-2.722-3.893a4.117 4.117 0 01.608-2.646c.319-.502.73-.898 1.201-1.232 1.11-4 .411-8.151-1.825-11.451a13.767 13.767 0 00-4.927-4.426c-6.159-3.33-13.991-1.931-18.948 2.95l-6.889 10.874c-1.126 1.794-3.452 2.54-5.688 2.038-.335.273-6.265-3.118-6.265-3.118-2.601-1.399-3.559-4.334-2.16-6.554l1.125-1.78-3.3-1.779c-2.113-1.14-3.239-3.224-3.056-5.216l-2.722-.745c-.502 1.673-1.962 3.01-4 3.437l-3.771.76-.35-1.095-2.084-.046.381-.79-.016-.624 4.912-.988c.898-.183 1.551-.776 1.795-1.506l-1.019-.274c-1.141-.319-1.855-1.383-1.582-2.387.198-.7.822-1.171 1.567-1.293a3.022 3.022 0 00-2.905-1.034l-3.878.79-.319-.607.121-.685-1.094-.38-.153-.988 4.395-.898c3.103-.623 6.388 1.14 7.315 3.954l.289.639 4.76 1.308.091-.152c1.552-2.433 5.125-3.163 7.969-1.612l3.285 1.78 2.433-3.848c1.414-2.22 4.654-2.875 7.254-1.475l4.699 2.54c.198.106.38.242.563.364 6.919-2.707 14.994-2.524 21.838 1.186 3.315 1.795 6.007 4.228 7.969 7.041a21.72 21.72 0 012.904 19.207c.091.411.137.822.107 1.247 1.825 3.24 2.874 6.783 3.072 10.266 1.323 9.535-6.099 17.473-16.881 17.868-3.056.137-6.113-.395-8.927-1.414zm20.744-25.518c.973-1.551.304-3.604-1.506-4.593-1.81-.988-4.091-.517-5.079 1.034-.989 1.551-.304 3.604 1.505 4.593 1.825.973 4.106.502 5.08-1.034zM155.848 84.87l3.558-5.612-3.284-1.78c-1.095-.592-2.434-.44-3.24.29.928.426 1.46 1.353 1.217 2.25-.274 1.004-1.43 1.552-2.57 1.248l-.365-.122c.091.76.578 1.49 1.384 1.931l3.3 1.795zm9.52 1.672l.943.502c.258.137.547.183.806.122.258-.06.501-.198.638-.41.274-.442.092-1.035-.426-1.308l-.942-.502c0-.7-.396-1.4-1.126-1.825a.112.112 0 00-.061-.03c-.015-.016-.03-.016-.045-.016-1.095-.578-2.464-.289-3.057.639-.593.943-.182 2.19.913 2.798.79.395 1.688.395 2.357.03zm-.092-3.421c.426.228.229.122 0 0zm-.121-.061s.015 0 0 0c.015.015.03.015.045.03-.015-.015-.03-.03-.045-.03zm0 0c-.015-.015-.015-.015 0 0 .015 0 .03.015.045.03-.015-.015-.03-.03-.045-.03zm.045.015c-.167-.091-.197-.106-.045-.03.015.015.03.03.045.03zm-.045-.015c-.152-.076-.213-.122-.244-.122.046.016.122.046.244.122zm-.259-.137s.015 0 .015.015l-.015-.015z" clip-rule="evenodd"/><path fill="#3D3D3D" fill-rule="evenodd" d="M185.487 119.193c-2.433-1.049-3.345-3.498-2.022-7.938v-.016c.365-.836.806-1.596 1.49-2.129.243.244.487.502.745.73l-.091 3.27 2.783 1.475 1.034-2.403c1.445.593 3.026.928 4.653.928 6.616.015 12.045-5.581 11.725-12.212a12.268 12.268 0 00-.638-3.36l-.563-1.84-.182-.35a16.446 16.446 0 00-.502-1.673c-.137-.076-.289-.152-.426-.243-.015-.016-.03-.016-.03-.031l-2.266-4.532a5.293 5.293 0 01.958-2.98 5.19 5.19 0 011.368-1.339c1.612-4.47 1.445-9.23-.395-13.063-.989-2.068-2.464-3.878-4.41-5.231-5.794-4.046-13.885-2.783-19.511 2.54l-8.334 12.028c-1.369 1.977-3.817 2.723-5.992 2.053-.38.29-5.946-3.801-5.946-3.801-2.448-1.704-3.042-5.08-1.354-7.528l1.369-1.962-3.102-2.16c-1.992-1.383-2.859-3.786-2.418-6.052l-2.646-.958c-.73 1.87-2.373 3.33-4.471 3.71l-3.893.7-.213-1.262-2.099-.137.487-.882.061-.715 5.079-.912c.927-.167 1.657-.806 2.007-1.627l-1.003-.365a2.153 2.153 0 01-1.293-2.768 2.15 2.15 0 011.749-1.4 2.683 2.683 0 00-2.798-1.292l-4 .76-.243-.699.213-.776-1.065-.471-.03-1.14 4.547-.822c3.224-.578 6.311 1.582 6.889 4.806l.137.745 4.638 1.673.106-.168a5.933 5.933 0 018.258-1.49l3.102 2.16 2.951-4.258c1.703-2.449 5.064-3.057 7.497-1.354l4.425 3.087c.183.137.35.29.517.441 7.33-2.783 15.451-2.205 21.899 2.297 3.133 2.174 5.52 5.048 7.163 8.333 3.224 6.463 3.482 14.493.517 21.899.046.471.03.943-.046 1.414a28.357 28.357 0 011.81 11.771c.137 10.858-8.364 19.542-19.298 19.526a20.485 20.485 0 01-8.897-2.007zm24.195-28.043a3.813 3.813 0 00-.942-5.277 3.784 3.784 0 00-5.262.943 3.795 3.795 0 00.943 5.262 3.748 3.748 0 005.261-.928zm-48.877-24.225l4.304-6.22-3.102-2.16a2.672 2.672 0 00-3.3.183 2.176 2.176 0 01.943 2.6 2.164 2.164 0 01-2.753 1.308l-.334-.121a2.688 2.688 0 001.155 2.25l3.087 2.16zm9.399 2.326l.882.624c.243.167.532.228.806.183a1.06 1.06 0 00.699-.442 1.091 1.091 0 00-.273-1.505l-.882-.624a2.276 2.276 0 00-.883-2.098c-.03-.03-.06-.046-.076-.061-.015 0-.015-.015-.015-.015-1.034-.715-2.463-.441-3.178.593a2.299 2.299 0 00.578 3.209 2.314 2.314 0 002.342.136zm.41-3.847c.274.198.168.122 0 0zm-.061-.03c.016.015.046.03.061.045-.015-.015-.03-.03-.061-.045zm-.076-.061c.031.015.046.045.076.06-.03-.03-.045-.045-.076-.06zm-.015-.015l-.015-.016c-.03-.015-.015 0 .015.016.015.015.015.015.031.015-.016 0-.031-.015-.031-.015zm0 .015c0-.015 0-.015 0 0 0 0 .015 0 0 0 .015 0 .015 0 0 0zm-.03-.03c.015.015.03.015.03.03 0 0 .015 0 .015.015-.015-.03-.03-.03-.045-.046zm.015.015c.015 0 .015 0 0 0 .015 0 0 0 0 0zm0-.016c0 .016 0 .016 0 0 0 .016 0 .016 0 0 0 .016 0 .016 0 0zm-.015 0c-.015-.015-.031-.015-.046-.03a1.707 1.707 0 00-.182-.122c.045.016.106.076.228.152zm-.046-.03l.031.015s.015 0 .015.015c-.015-.015-.031-.015-.046-.03zm0 0c-.061-.046-.061-.046.031.015l-.031-.015zm-.198-.137s.016 0 .016.015l-.016-.015z" clip-rule="evenodd"/><path fill="#0ACCF9" fill-rule="evenodd" d="M104.34 127.664l-23.176-24.743-2.525 1.201-.562-1.201 2.16-1.019L26.02 44.007c-6.432-6.858-4.227-14.173 4.912-16.333L142.298 1.456c9.14-2.159 14.356 3.407 11.649 12.425L120.901 123.77c-2.722 9.018-10.128 10.767-16.561 3.894zm-26.81-16.622a2.166 2.166 0 010-3.072c.836-.852 2.204-.852 3.071 0 .837.836.837 2.22 0 3.072-.867.851-2.235.851-3.072 0zm2.356-.7a1.166 1.166 0 000-1.673c-.471-.456-1.231-.456-1.672 0-.487.472-.487 1.232 0 1.673a1.165 1.165 0 001.672 0zM25.672 28.07l-.457-3.468.791-.106.441 3.452-.775.122zm11.831-5.08a1.065 1.065 0 010-1.52 1.091 1.091 0 011.52 0c.427.425.427 1.11 0 1.52-.41.426-1.11.426-1.52 0zm1.186-1.17h-.836a.597.597 0 000 .836h.836a.597.597 0 000-.837z" clip-rule="evenodd"/><path fill="#024654" fill-rule="evenodd" d="M124.034 117.353c-.441-.563-.609-1.384-.654-2.312l1.353.685.609-1.217-2.008-.988c.015-.365.015-.7.015-1.05a2.87 2.87 0 01-2.068-.882c-1.156-1.14-1.156-3.011 0-4.167.244-.243.517-.425.791-.578-.365-.745-.76-1.444-1.141-2.144l.928.745.852-1.079-3.513-2.799a23.212 23.212 0 01-.715-1.535c-.7.456-1.658.395-2.266-.229-.715-.684-.715-1.84 0-2.54a1.697 1.697 0 011.201-.516c-.06-.365-.136-.73-.182-1.11-.106-.791-.046-1.734.03-2.662l-1.688.593-.273-.806.912.517 1.125-1.992.092-.03c0-.061.015-.122.015-.168l1.703-2.995-1.186-.685-.684 1.217c-.168-.38-.487-.882-.913-1.445a3.014 3.014 0 00-.578-3.33 3.016 3.016 0 00-2.57-.837c-.213-.304-.41-.608-.608-.912h.334V76.14h-1.353v2.19a4.583 4.583 0 00-.532-1.505c-1.217 1.247-.609 6.144-4.137 9.018-.836.684-.775 3.072-1.171 4-.425.958-3.178 3.224-3.938 4.516-1.111 1.886-2.707 4.486-4.73 6.007-1.81 1.338-4.41 4.76-6.615 6.828a2.945 2.945 0 00-2.814.791c-1.14 1.141-1.14 3.026 0 4.182a2.923 2.923 0 002.996.715c.822 1.581 1.764 3.026 2.13 3.589.06.106 2.022.319 2.356.441v.882c-1.475.198-3.528.76-4.866-.152-.06-.046-.137-.091-.198-.137l.046-.046a1.55 1.55 0 000-2.174 1.523 1.523 0 00-2.175 0 .62.62 0 00-.09.106c-.959-1.049-1.978-2.342-2.738-3.619l-.152.121-1.14-1.809 2.57-1.141-.396-.912-2.707 1.201-2.175-3.452 1.4-.882 1.429 2.266c.06-.213.167-.426.304-.608.091-.122.198-.259.32-.365a.944.944 0 00.258.425c.41.411 1.095.411 1.505 0a1.073 1.073 0 000-1.505l.092-.046a2.996 2.996 0 01.547-3.421c.624-.639 1.46-.898 2.281-.867 0 .608.213 1.216.684 1.673a2.332 2.332 0 003.3 0 2.369 2.369 0 000-3.33 2.314 2.314 0 00-1.718-.67l.137-.32-3.422-2.28.776-1.141 3.163 2.129c.015-.06.06-.122.076-.198.547.517 1.4.502 1.947-.045a1.432 1.432 0 000-2.008 1.282 1.282 0 00-.913-.395c.243-.548.517-1.095.791-1.658L92.433 93.6l-.989-1.506 4.76-3.087c.183-.258.365-.502.563-.76.076-.107.243-.244.486-.41a.43.43 0 01-.152-.138 2.974 2.974 0 010-4.197c.974-1.004 2.494-1.125 3.635-.426a17.338 17.338 0 01-.076-.973l.547 1.201.958-.456-1.931-4.182-.106.046-1.506-2.799 1.201-.638 1.05 1.962c.304-1.08.654-2.206.988-3.331a1.996 1.996 0 01-.912-.563 2.276 2.276 0 010-3.208 2.233 2.233 0 012.038-.609c.045-.32.091-.623.136-.958a3.182 3.182 0 01-.349-.821 2.791 2.791 0 001.733-.836 2.947 2.947 0 000-4.198 3.271 3.271 0 00-.943-.623l.594-1.278a3.113 3.113 0 01-.746-1.657c-.045.197-.091.38-.136.562-.213.746-.654 1.46-1.156 2.175a2.866 2.866 0 00-1.78.837c-.851.882-1.08 2.144-.654 3.193-.121.38-.212.776-.243 1.186-.228 2.16.304 7.939-2.235 7.984 0-.76-.274-1.505-.867-2.083-.624-.654-1.49-.928-2.327-.852.076-.547.335-1.125.684-1.703l-1.824.73-.517-1.247 2.707-1.095c.076.167.197.35.334.487.715.7 1.84.7 2.54 0s.7-1.84 0-2.54c-.061-.06-.122-.122-.183-.167a2.6 2.6 0 00.213-.396c.046-.167-.365-2.22-.304-2.95.091-.79.167-1.627.274-2.448l-1.156 2.25-1.217-.623 1.536-2.996 3.331.563.167-.989-3.011-.502.7-1.368.076.045c.06-.608.106-1.201.136-1.764a2.142 2.142 0 01-.897-.547 2.26 2.26 0 01-.44-2.555 4.72 4.72 0 01-3.788-1.384c-1.87-1.886-1.87-4.927 0-6.798a4.764 4.764 0 015.536-.897 2.996 2.996 0 01.852-2.327 3.407 3.407 0 011.079-.684c.046.091.122.167.198.243.7.715 1.84.715 2.54 0 .699-.684.699-1.855 0-2.555a1.776 1.776 0 00-2.251-.213l-1.901-2.722 1.11-.79 1.551 2.205c.076-.137.122-.274.183-.396a.41.41 0 00.106.122c.411.41 1.08.41 1.506 0a1.064 1.064 0 000-1.52 1.06 1.06 0 00-.913-.305 2.953 2.953 0 01.152-4 2.974 2.974 0 012.829-.79 6.8 6.8 0 00.274-.837c.258-.928.319-1.399.304-2.372l-2.205 2.387-1.004-.912 2.814-3.072c-.122-.32-.289-.684-.441-1.05a1.74 1.74 0 001.338-.516c.715-.7.715-1.84 0-2.54-.7-.7-1.825-.7-2.525 0-.228.228-.38.487-.471.776a3.791 3.791 0 01-1.384-.867 3.8 3.8 0 010-5.338 3.742 3.742 0 014.486-.608c.396-.183.806-.35 1.293-.487 2.403-.776 8.942 1.642 9.429 2.661.076.137-.7 3.224-.746 3.985-.03 1.368 1.43.638 1.339 3.254-2.084.122-.593 2.342-1.476 3.102-.76.67-3.604.183-4.714.441-.38.092-.593.806-.593 1.323-.03 3.24 4.06 6.585 5.003 11.543.472 2.479.837 4.045 1.475 6.494.518 1.992.168 4.866-.304 7.664 3.087 1.536 9.657 3.255 10.478 3.878 2.373 1.825 1.947 4.44-1.353 5.383-.031.016-.578 0-.593 0-.137-.106-.289-.182-.426-.273a2.074 2.074 0 00-.243-2.616 2.065 2.065 0 00-2.92 0 1.74 1.74 0 00-.396.547 5.2 5.2 0 01-.836-.805 1.971 1.971 0 00-.319-.29l-3.209.198-.046-.82 1.521-.077c-.806-.228-1.688-.426-2.372-.67-.076.548-.122 1.05-.153 1.506-1.931 4.502 3.772 16.531 5.293 20.987 1.46 4.288 3.619 13.808 3.969 18.34.456 5.87.137 12.501 5.459 14.934 1.141.532 4 .198 5.156 1.338.137.654-.274 1.156-.441 1.779-.685.776-11.862.198-12.379-.547zm-35.708-1.43c.046-.06.077-.106.122-.121a.801.801 0 011.186 0 .809.809 0 010 1.171c-.03.03-.076.061-.106.091-.365-.304-.776-.7-1.202-1.141zm28.895-3.817l-3.407-1.733.38-.776 3.407 1.734-.38.775zm-28.636-.867a1.641 1.641 0 01.79-2.752c-.182.791.168 1.962.685 3.178a1.589 1.589 0 01-1.475-.426zm34.399-2.296a9.83 9.83 0 00-.349-.882 1.453 1.453 0 00-.426.304 1.616 1.616 0 000 2.297c.319.319.73.471 1.125.486-.03-.836-.106-1.597-.35-2.205zm-37.851-2.676a.552.552 0 01-.167-.411c.273-.198.578-.365.867-.517a.435.435 0 01.136.091.571.571 0 010 .837c-.212.228-.593.228-.836 0zm3.817-2.662c.289-.441.563-.867.821-1.338a1.625 1.625 0 00-1.87.304 1.662 1.662 0 00-.274 1.947c.593-.274 1.08-.563 1.323-.913zm1.703-1.901c-.243-.258-.365-.578-.274-.638l.563-1.308c.943-.259 1.278-.137 1.521.121a1.294 1.294 0 010 1.825c-.487.487-1.308.487-1.81 0zm27.511-2.448a22.172 22.172 0 01-.548-1.703.973.973 0 00-.836.289 1 1 0 000 1.399c.38.365.988.38 1.384.015zm3.391.182l1.475-2.326-.532-.35-1.46 2.342.517.334zM92.63 96.154a1.256 1.256 0 01-.121-.183c.152-.365.304-.745.471-1.125a.787.787 0 01.76.197.79.79 0 010 1.11.819.819 0 01-1.11 0zm28.119-.517a2.02 2.02 0 00.639-2.783 2.008 2.008 0 00-2.783-.654c-.958.593-1.232 1.855-.639 2.813.578.928 1.825 1.217 2.783.624zm-2.023-1.141a1.098 1.098 0 01.35-1.536 1.119 1.119 0 011.551.365c.32.517.168 1.217-.35 1.536a1.14 1.14 0 01-1.551-.365zM73.058 91.85a3.819 3.819 0 010-5.353 3.79 3.79 0 015.353 0 3.79 3.79 0 010 5.353 3.79 3.79 0 01-5.353 0zm42.11.502l-.107-.304.335-.107-.228.41zm-16.744-.046l.502-.486-2.114-2.206-.501.487 2.113 2.205zm15.755-.152l-3.786-.973.213-.882 3.801.988-.228.867zm-36.97-1.505c.792-.806.792-2.114 0-2.936a2.056 2.056 0 00-2.934 0 2.056 2.056 0 000 2.936 2.056 2.056 0 002.935 0zm23.877-3.179a1.433 1.433 0 00-.441-2.311c.03-.03.03-.076.06-.107a1.513 1.513 0 00-.38-.608 1.643 1.643 0 00-2.296 0 1.616 1.616 0 000 2.296c.152.152.335.274.517.35.06-.03.137-.076.228-.137.076.183.183.35.32.517a1.414 1.414 0 001.992 0zm-1.552-.456a.674.674 0 01-.212-.41c.334-.214.593-.411.684-.594.03-.06.122-.182.228-.32a.831.831 0 01.411.214.82.82 0 010 1.11.79.79 0 01-1.11 0zm13.307-.228c-.593-.593-.593-1.567-.03-2.099 1.307-.365 1.703-.213 2.022.107.32.319.472.73.107 2.022-.548.563-1.506.563-2.099-.03zm1.658-.487a.827.827 0 000-1.186.835.835 0 00-1.171 0 .826.826 0 000 1.186.809.809 0 001.171 0zm-33.867-2.707l-2.875-4.988 1.14-.654 2.86 4.988-1.126.654zm23.997-.32l1.475-2.341-.547-.335-1.475 2.342.547.335zm-17.93-.866c-1.049-1.019-1.049-2.737 0-3.787a2.68 2.68 0 013.772 0c1.05 1.05 1.05 2.768 0 3.787a2.653 2.653 0 01-3.772 0zm2.92-.852a1.497 1.497 0 000-2.083 1.469 1.469 0 00-2.083 0 1.497 1.497 0 000 2.083 1.469 1.469 0 002.083 0zm14.675-4.805a1.064 1.064 0 000-1.52 1.064 1.064 0 00-1.52 0 1.092 1.092 0 000 1.52c.425.41 1.11.41 1.52 0zm-1.186-.35c-.228-.213-.228-.593 0-.836a.597.597 0 01.837 0 .597.597 0 010 .836.597.597 0 01-.837 0zm-8.273-2.357a2.594 2.594 0 01-.578-.578c.411.015.806.167 1.095.472.213.212.35.456.426.73a9.055 9.055 0 01-.943-.624zm7.923-3.528c-.38-.091-.806.03-1.11.334a1.259 1.259 0 000 1.75c.152.136.32.243.502.303.213-.79.441-1.596.608-2.387zm4.517 1.095a1.533 1.533 0 000-2.16 1.524 1.524 0 00-2.175 0 1.563 1.563 0 000 2.16 1.552 1.552 0 002.175 0zm-1.688-.487a.855.855 0 010-1.186.844.844 0 011.201 0c.32.32.32.867 0 1.186a.844.844 0 01-1.201 0zm-9.626-2.388a.862.862 0 01-.183-.228l.563-.213c.32-.38.639-.714.912-1.049.03.03.076.061.107.091a.973.973 0 010 1.4c-.396.38-1.034.38-1.4 0zm-5.505-1.246a2.955 2.955 0 010-4.183 2.965 2.965 0 014.166 0c1.141 1.156 1.141 3.042 0 4.182a2.937 2.937 0 01-4.166 0zm3.239-.928c.623-.639.623-1.673 0-2.297-.624-.638-1.658-.638-2.312 0-.623.624-.623 1.658 0 2.297.654.623 1.688.623 2.312 0zm9.307-3.255c.197.076.38.198.547.365.624.624.624 1.658 0 2.297a1.59 1.59 0 01-1.079.471c-.107-1.125.152-2.129.532-3.133zm-31.328 1.552l-2.95-1.886.426-.67 2.95 1.886-.426.67zm51.447-2.92a1.33 1.33 0 01.274-.441 1.13 1.13 0 011.597 0c.395.41.441 1.049.091 1.49-.669-.35-1.323-.654-1.962-1.05zm-38.581.471l-.046-.79 3.483-.214.045.806-3.482.198zm-27.009-.593a1.093 1.093 0 010-1.52 1.047 1.047 0 011.506 0 1.065 1.065 0 010 1.52c-.41.41-1.08.41-1.506 0zm51.189-.304c.41-.41.41-1.095 0-1.536-.426-.41-1.11-.41-1.506 0a1.083 1.083 0 000 1.536c.396.426 1.08.426 1.506 0zm-50.018-.03a.615.615 0 000-.852.578.578 0 00-.82 0c-.229.243-.229.593 0 .852.227.212.607.212.82 0zm48.847-.305a.597.597 0 010-.836.553.553 0 01.821 0 .597.597 0 010 .836.578.578 0 01-.821 0zm-2.464-3.33c-.334.228-.471.821-.334 1.369.152-.487.304-1.004.334-1.37zm3.468 0l.517-.912-3.97-2.251a10.195 10.195 0 00-.532-1.932c-.365 1.445-.563 3.057-.821 4.593a4.79 4.79 0 01.471-.654 2.61 2.61 0 011.019-.654v-.06l3.316 1.87zm-31.678-3.057a3.002 3.002 0 010-4.197 2.956 2.956 0 014.182 0 3.002 3.002 0 010 4.197 2.983 2.983 0 01-4.182 0zm24.15.091c.699-.7.699-1.855 0-2.554-.35-.35-.806-.517-2.114-.183l.03-.106a1.18 1.18 0 00-.654.334c-.304.32-.41.73-.319 1.14-.03.487.137.99.517 1.37.684.684 1.84.684 2.54 0zm-1.962-.577a1 1 0 010-1.4.956.956 0 011.384 0c.38.396.38 1.004 0 1.4-.38.38-1.019.38-1.384 0zm-18.964-.457a1.643 1.643 0 000-2.296 1.597 1.597 0 00-2.28 0 1.615 1.615 0 000 2.296 1.625 1.625 0 002.28 0zm25.686-1.703c.791-.776.791-2.083 0-2.874a1.992 1.992 0 00-2.859 0 2.01 2.01 0 000 2.874 1.992 1.992 0 002.859 0zm-2.221-.654a1.122 1.122 0 010-1.566 1.13 1.13 0 011.597 0 1.12 1.12 0 010 1.566 1.13 1.13 0 01-1.597 0zm-4.972-2.129a2.625 2.625 0 000-3.726 2.607 2.607 0 00-3.711 0 2.625 2.625 0 000 3.726 2.607 2.607 0 003.71 0zm-40.27 0l-3.954-3.376.776-.897 3.939 3.36-.76.913zm50.2-2.752l.608-.168-.775-2.646-.608.168.775 2.646zm-20.18-1.171c-.7-.7-.7-1.825 0-2.51.684-.7 1.81-.7 2.494 0a1.79 1.79 0 010 2.51 1.772 1.772 0 01-2.494 0zm1.931-.578a.982.982 0 000-1.384.982.982 0 00-1.384 0 1.011 1.011 0 000 1.384.982.982 0 001.384 0zm11.162-3.468a1.522 1.522 0 00-.76.426 1.615 1.615 0 000 2.297c.228.228.502.38.791.44.076-.942.015-2.053-.031-3.163zm7.452-.121c.958-.974.958-2.555 0-3.513a2.451 2.451 0 00-3.513 0c-.973.958-.973 2.54 0 3.513.958.973 2.54.973 3.513 0zm-2.737-.791c-.533-.532-.533-1.414 0-1.931a1.34 1.34 0 011.931 0 1.366 1.366 0 010 1.93 1.367 1.367 0 01-1.931 0zm-4.563-.624c-.076-.06-.121-.152-.167-.228 0-.35.015-.684.046-1.019.045-.045.076-.09.121-.152a1.002 1.002 0 011.4 0 .974.974 0 010 1.4c-.381.38-1.019.38-1.4 0zm-63.506-.669c-.41-.41-.41-1.11 0-1.52a1.065 1.065 0 011.52 0 1.1 1.1 0 01.274.486l1.901.274-.106.67-1.825-.275a.923.923 0 01-.228.365c-.441.41-1.11.41-1.536 0zm1.186-.35c.03-.03.061-.06.076-.106l-.563-.076.107-.654.426.061c-.016-.015-.03-.03-.03-.046-.214-.228-.609-.228-.837 0a.597.597 0 000 .837c.213.213.593.213.821-.015zM90.257 38l-.288-1.11 4.836-1.338.304 1.11L90.258 38zm-22.734-1.019v-2.813h.638l.016 2.813h-.654zm35.159-1.232a.543.543 0 01-.167-.334c.122-.259.243-.472.35-.624a.594.594 0 01.654.137c.243.228.243.593 0 .837-.243.197-.624.197-.837-.016zm-50.367-1.186a2.938 2.938 0 01-.836-1.657l-3.103-.076.03-1.263 3.164.076a2.57 2.57 0 01.745-1.262 2.937 2.937 0 014.167 0 2.955 2.955 0 010 4.182 2.937 2.937 0 01-4.167 0zm3.224-.927a1.662 1.662 0 000-2.312 1.597 1.597 0 00-2.281 0c-.122.091-.198.228-.274.35l.898.015-.03 1.247-1.02-.03c.076.258.213.502.426.714a1.61 1.61 0 002.281.016zm53.804-.335l.213-1.247-4.501-.776c.091-.182.197-.35.289-.547a1.664 1.664 0 00-1.232.38h-.046l-.015.046c0 .015-.015.03-.046.045a1.617 1.617 0 00-.197 2.053c.182-.273.35-.532.517-.806l5.018.852zm-28.529-.76a1.946 1.946 0 010-2.753 1.928 1.928 0 012.737 0c.76.76.76 1.992 0 2.753-.745.76-1.992.76-2.737 0zm2.114-.624c.41-.41.41-1.08 0-1.505a1.047 1.047 0 00-1.506 0 1.074 1.074 0 000 1.505 1.047 1.047 0 001.506 0zm14.751-4.486a3.002 3.002 0 010-4.197c1.171-1.156 3.042-1.156 4.182 0 1.141 1.155 1.141 3.026 0 4.197-1.14 1.156-3.01 1.156-4.182 0zm3.239-.943a1.642 1.642 0 000-2.296 1.615 1.615 0 00-2.296 0 1.615 1.615 0 000 2.296 1.615 1.615 0 002.296 0zm10.098-2.311a.973.973 0 000-1.354.945.945 0 00-1.353 0 .973.973 0 000 1.354c.365.38.973.38 1.353 0zm-48.345.045l-.304-.334 1.4-1.324.304.335-1.4 1.323zm47.296-.334a.532.532 0 010-.76.542.542 0 01.745 0c.213.197.213.531 0 .76a.542.542 0 01-.745 0zm-4.745-1.217c-.152-.335-.319-.684-.456-1.034a.87.87 0 01.274-.502 1 1 0 011.399 0c.38.38.38 1.004 0 1.4a.974.974 0 01-1.217.136zm-16.515-2.433l-.213-.989 4.288-.943.213.989-4.288.943zm16.515-4.517c-.517 0-1.034.198-1.414.593a2.102 2.102 0 000 2.95c.091.092.197.168.304.244-.228-1.354-.046-2.677 1.11-3.787zm5.353 2.874c.7-.7.7-1.84 0-2.554-.699-.7-1.84-.7-2.555 0-.684.714-.684 1.855 0 2.554a1.79 1.79 0 002.555 0zm-1.962-.562c-.38-.396-.38-1.034 0-1.4a.973.973 0 011.399 0c.396.366.396 1.02 0 1.4a1 1 0 01-1.399 0z" clip-rule="evenodd"/><path fill="#3D3D3D" fill-rule="evenodd" d="M140.397 54.226l-.243-.7.213-.775-1.065-.471-.03-1.14 4.547-.822h.015v3.3l-3.437.608zm-92.568 9.946l2.737-1.034.228 1.11 1.126.274-.061.806.365.654-3.255 1.232a2.695 2.695 0 00-1.718 2.28h-3.254c.106-2.31 1.536-4.455 3.832-5.322z" clip-rule="evenodd"/><path fill="#F1A900" fill-rule="evenodd" d="M128.246 144.316l-5.946-7.589-7.406 5.825 3.452-28.925 13.368 1.612-3.468 29.077z" clip-rule="evenodd"/><path fill="#FFCB01" fill-rule="evenodd" d="M151.255 146.217l-13.626-6.159-5.991 13.382-15.999-42.292 19.542-7.451 16.074 42.52z" clip-rule="evenodd"/><path fill="#E7B800" fill-rule="evenodd" d="M124.399 133.488l17.884-10.934 3.832 10.158c-8.121 3.331-15.481 4-21.716.776z" clip-rule="evenodd"/><path fill="#EB9906" fill-rule="evenodd" d="M108.796 87.44c11.101-9.703 27.951-8.547 37.623 2.6 9.672 11.132 8.516 28.058-2.585 37.76-11.102 9.703-27.951 8.547-37.623-2.6-9.672-11.132-8.517-28.058 2.585-37.76z" clip-rule="evenodd"/><path fill="#FFCB01" fill-rule="evenodd" d="M108.051 92.215c8.47-10.113 23.526-11.436 33.608-2.935 10.083 8.5 11.391 23.602 2.935 33.73-8.47 10.113-23.526 11.436-33.608 2.935-10.083-8.501-11.39-23.617-2.935-33.73z" clip-rule="evenodd"/><path fill="#413000" fill-rule="evenodd" d="M112.248 113.597v-11.665h-3.026l-4.456 4.365 1.992 2.083 1.977-1.961v7.178h3.513zm6.418.213c.866 0 1.627-.168 2.265-.502a4.583 4.583 0 001.612-1.339 5.862 5.862 0 00.958-1.931c.213-.715.32-1.475.32-2.281s-.107-1.551-.32-2.281a5.934 5.934 0 00-.958-1.916 4.404 4.404 0 00-1.612-1.323c-.638-.32-1.399-.487-2.265-.502-.867 0-1.628.167-2.266.502a4.53 4.53 0 00-1.612 1.323 5.934 5.934 0 00-.958 1.916 7.949 7.949 0 00-.32 2.281c0 .806.107 1.551.32 2.281.212.715.532 1.369.958 1.931a4.61 4.61 0 001.612 1.339c.638.334 1.399.486 2.266.502zm0-3.118c-.563 0-.974-.243-1.232-.715-.259-.486-.396-1.216-.396-2.205 0-.988.122-1.718.396-2.19.258-.471.669-.715 1.232-.715.562 0 .958.229 1.231.715.259.472.396 1.202.396 2.19 0 .989-.137 1.719-.396 2.205-.273.472-.684.715-1.231.715zm10.949 3.118c.867 0 1.627-.168 2.266-.502a4.592 4.592 0 001.612-1.339 5.882 5.882 0 00.958-1.931 7.949 7.949 0 00.319-2.281c0-.806-.106-1.551-.319-2.281a5.955 5.955 0 00-.958-1.916 4.412 4.412 0 00-1.612-1.323c-.639-.32-1.399-.487-2.266-.502-.867 0-1.627.167-2.266.502a4.538 4.538 0 00-1.612 1.323 5.955 5.955 0 00-.958 1.916 7.949 7.949 0 00-.319 2.281c0 .806.106 1.551.319 2.281.213.715.532 1.369.958 1.931a4.619 4.619 0 001.612 1.339c.639.334 1.399.486 2.266.502zm0-3.118c-.563 0-.973-.243-1.232-.715-.258-.486-.395-1.216-.395-2.205 0-.988.121-1.718.395-2.19.259-.471.669-.715 1.232-.715s.958.229 1.232.715c.258.472.395 1.202.395 2.19 0 .989-.137 1.719-.395 2.205-.274.472-.685.715-1.232.715zm8.927-3.057c.638 0 1.201-.137 1.657-.395a2.658 2.658 0 001.08-1.049c.259-.442.38-.928.38-1.476a3.06 3.06 0 00-.38-1.49 3.003 3.003 0 00-1.08-1.064c-.471-.259-1.019-.396-1.657-.396-.639 0-1.187.137-1.643.396a2.651 2.651 0 00-1.064 1.064c-.259.441-.38.943-.38 1.49 0 .548.136 1.05.38 1.476.258.441.608.79 1.064 1.049.456.258 1.004.38 1.643.395zm.517 5.962l7.451-11.665h-1.703l-7.421 11.665h1.673zm6.235.212c.639 0 1.186-.136 1.657-.395a2.747 2.747 0 001.08-1.049c.259-.441.38-.928.38-1.475 0-.548-.137-1.05-.38-1.491-.243-.441-.608-.79-1.08-1.064-.471-.259-1.018-.396-1.657-.396s-1.186.137-1.643.396a2.786 2.786 0 00-1.079 1.064c-.259.441-.381.943-.381 1.491 0 .547.137 1.034.381 1.475.258.441.608.791 1.079 1.049.457.259 1.004.395 1.643.395zm-6.752-8.029c-.274 0-.502-.076-.685-.259-.182-.167-.273-.441-.289-.821.016-.395.107-.669.289-.851a.98.98 0 01.685-.259c.182 0 .365.03.517.106a.909.909 0 01.365.35c.091.168.137.38.137.639 0 .243-.046.456-.137.608a.902.902 0 01-.365.35 1.059 1.059 0 01-.517.137zm6.752 6.174c-.289 0-.517-.076-.7-.243-.182-.167-.273-.441-.289-.821 0-.396.107-.669.289-.852.183-.167.426-.259.7-.259.182 0 .365.031.517.107a.896.896 0 01.365.35c.091.167.137.38.137.638 0 .259-.046.457-.137.624a.896.896 0 01-.365.35 1.213 1.213 0 01-.517.106z" clip-rule="evenodd"/><path fill="#fff" fill-rule="evenodd" d="M117.16 85.813l-4.258-.837c-.608-.121-1.186-.7-1.308-1.308l-.821-4.273c-.183-.928-.472-.928-.639 0l-.821 4.273c-.122.609-.7 1.186-1.308 1.308l-4.258.821c-.912.183-.912.472 0 .654l4.258.837c.608.121 1.186.7 1.308 1.308l.821 4.273c.183.927.472.927.639 0l.821-4.273c.122-.609.7-1.187 1.308-1.308l4.258-.822c.912-.182.912-.486 0-.653z" clip-rule="evenodd"/><path fill="#fff" fill-opacity=".5" fill-rule="evenodd" d="M120.262 94.405l-1.992-.38a.85.85 0 01-.608-.609l-.38-1.992c-.076-.426-.213-.426-.305 0l-.38 1.992a.875.875 0 01-.608.609l-1.992.38c-.426.076-.426.213 0 .304l1.992.38a.85.85 0 01.608.608l.38 1.993c.076.425.213.425.305 0l.38-1.993c.061-.288.334-.562.608-.608l1.992-.38c.426-.091.426-.228 0-.304zm19.238 38.14l-1.992-.38a.852.852 0 01-.609-.608l-.38-1.993c-.076-.425-.213-.425-.304 0l-.38 1.993a.878.878 0 01-.609.608l-1.992.38c-.426.076-.426.213 0 .304l1.992.38a.851.851 0 01.609.609l.38 1.992c.076.426.213.426.304 0l.38-1.992c.061-.289.335-.563.609-.609l1.992-.38c.441-.076.441-.213 0-.304z" clip-rule="evenodd"/></svg>