<svg width="223" height="138" viewBox="0 0 223 138" fill="none" xmlns="http://www.w3.org/2000/svg"><path fill-rule="evenodd" clip-rule="evenodd" d="M60.817 128.883h131.79a6.261 6.261 0 006.268-6.257v-95.88c0-3.47-2.819-6.288-6.268-6.288H60.817a6.269 6.269 0 00-6.269 6.287v95.851c0 3.47 2.82 6.287 6.27 6.287z" fill="#343434"/><path fill-rule="evenodd" clip-rule="evenodd" d="M58.538 118.385h136.199v-92.47h-136.2v92.47z" fill="#B4E5FC"/><path fill-rule="evenodd" clip-rule="evenodd" d="M60.817 125.947h131.79c3.449 0 6.719.208 7.288.475l22.645 10.202c1.02.445-1.979.83-6.718.83H36.013c-4.739 0-7.678-.385-6.598-.83l24.054-10.202c.6-.297 3.9-.475 7.348-.475z" fill="#C2C4CF"/><path fill-rule="evenodd" clip-rule="evenodd" d="M34.363 134.726l-5.218-.03v2.165l5.218-2.135zm183.318 0l5.219-.03v2.165l-5.219-2.135z" fill="#C2C4CF"/><path fill-rule="evenodd" clip-rule="evenodd" d="M60.817 123.901h131.79c3.449 0 6.719.207 7.288.474l22.645 10.202c1.02.445-1.979.831-6.718.831H36.013c-4.739 0-7.678-.386-6.598-.831l24.054-10.202c.6-.267 3.9-.474 7.348-.474z" fill="#E5E7EB"/><path fill-rule="evenodd" clip-rule="evenodd" d="M187.688 124.168H64.836l-12.267 6.613h146.277l-11.158-6.613z" fill="#303030"/><path fill-rule="evenodd" clip-rule="evenodd" d="M145.548 131.404h-39.261l-2.16 2.58h42.89l-1.469-2.58z" fill="#CCD0D6"/><path fill-rule="evenodd" clip-rule="evenodd" d="M84.272 89.647c-2.67 0-4.17-.919-4.949-1.72-1.71-1.69-2.04-3.38-2.04-6.287V8.536c0-2.906.3-4.597 2.04-6.287.78-.8 2.28-1.72 4.919-1.72h29.453c2.67 0 4.169.92 4.949 1.72 1.71 1.69 2.04 3.38 2.04 6.287V81.64c0 2.906-.3 4.597-2.04 6.287-.78.771-2.279 1.72-4.949 1.72H84.272z" fill="#434343"/><path fill-rule="evenodd" clip-rule="evenodd" d="M77.223 12.273h-.09l-.03.03-.03.03-.03.029v.03c0 .03-.03.059-.03.088v3.025c0 .03 0 .06.03.09v.029s0 .03.03.03c0 0 0 .03.03.03l.03.029h.21v-3.44h-.12zm0 6.436h-.09s-.03 0-.03.03c0 0-.03 0-.03.029l-.03.03v.03c0 .029-.03.058-.03.058v6.11c0 .03 0 .059.03.089v.03s0 .029.03.029c0 0 .03 0 .03.03l.03.03.03.029h.18v-6.524h-.12zm.06 8.244h-.09l-.03.03-.03.03c-.03 0-.03.029-.03.029v.03c0 .03-.03.059-.03.059v6.11c0 .029 0 .059.03.088v.03l.03.03c0 .03 0 .03.03.03l.03.029s.03 0 .03.03h.12v-6.525h-.06zm43.67 4.063v-9.845c0-.03-.03-.06-.03-.089a.165.165 0 00-.15-.089h-.18v10.261h.09c.09 0 .15-.03.21-.118l.06-.119c0 .03 0 .03 0 0z" fill="#434343"/><path fill-rule="evenodd" clip-rule="evenodd" d="M117.024 3.91c-.479-.475-1.439-1.038-3.329-1.038h-3.359c-.18.03-.42.118-.45.534-.03.563-.09 1.305-.66 1.898a2.17 2.17 0 01-1.559.652H90.361c-.57 0-1.14-.207-1.56-.652-.54-.564-.63-1.335-.66-1.898-.03-.416-.27-.505-.45-.534h-3.449c-1.89 0-2.85.563-3.33 1.038-1.139 1.127-1.349 2.194-1.349 4.626V81.64c0 2.462.21 3.53 1.35 4.627.48.474 1.44 1.038 3.329 1.038h29.453c1.89 0 2.85-.564 3.329-1.038 1.14-1.127 1.35-2.195 1.35-4.627V8.536c0-2.461-.21-3.529-1.35-4.626z" fill="#DEF4FF"/><path fill-rule="evenodd" clip-rule="evenodd" d="M104.457 3.702c0 .386-.3.682-.69.682a.674.674 0 01-.689-.682c0-.385.299-.682.689-.682.39 0 .69.297.69.682zm-2.759-.001c0 .208-.15.356-.36.356h-4.739a.344.344 0 01-.36-.356c0-.207.15-.355.36-.355h4.739c.21 0 .36.148.36.355z" fill="#2C2C2C"/><path fill-rule="evenodd" clip-rule="evenodd" d="M54.339 97.684v-6.228l24.654-13.049v6.288L54.34 97.685z" fill="#1D1D1D" fill-opacity=".1"/><path fill-rule="evenodd" clip-rule="evenodd" d="M77.284 82.174V76.36l1.17-.623c8.187-4.181 12.237-15.896 9.057-26.157-.57-1.809-1.32-3.47-2.22-4.923l3.66-2.906a27.798 27.798 0 012.55 5.813c4.048 13.019-1.11 27.877-11.488 33.156l-2.73 1.453z" fill="#1D1D1D" fill-opacity=".1"/><path fill-rule="evenodd" clip-rule="evenodd" d="M85.261 44.599c-.33-.712.21-1.958 1.23-2.729 1.02-.77 2.13-.83 2.46-.089.33.712-.21 1.958-1.23 2.729-1.02.77-2.13.83-2.46.089z" fill="#1D1D1D" fill-opacity=".1"/><path fill-rule="evenodd" clip-rule="evenodd" d="M63.967 36.947c.57-.326 1.53.267 2.07 1.276.539 1.008.569 2.135-.03 2.432-.57.326-1.53-.267-2.07-1.276-.54-1.008-.57-2.105.03-2.431z" fill="#767676"/><path fill-rule="evenodd" clip-rule="evenodd" d="M65.976 40.714l-1.98-3.767a20.144 20.144 0 0113.287-1.927v4.389c-3.689-.979-7.708-.623-11.307 1.305zM47.65 91.635l1.62-5.665 31.493-17.112C88.53 64.765 91.5 55.157 87.42 47.387a15.64 15.64 0 00-2.64-3.648l3.36-2.64a20.555 20.555 0 013.06 4.33c5.188 9.846 1.379 22.065-8.459 27.255L47.65 91.634z" fill="#767676"/><path fill-rule="evenodd" clip-rule="evenodd" d="M88.2 41.07c.39.533-.03 1.542-.989 2.253-.96.712-2.04.86-2.46.327-.39-.534.03-1.542.99-2.254s2.04-.86 2.46-.327zM47.65 91.634l1.62-5.664 5.279-2.847v4.804l-6.899 3.707zM33.613 58.27l-4.559-2.431 25.495-13.82v4.863L33.613 58.271z" fill="#767676"/><path fill-rule="evenodd" clip-rule="evenodd" d="M38.622 48.75c15.687 4.864 24.475 21.561 19.616 37.28-4.86 15.688-21.565 24.496-37.282 19.602C5.24 100.739-3.518 84.072 1.341 68.354 6.2 52.636 22.936 43.887 38.622 48.75z" fill="#EFA40A"/><path fill-rule="evenodd" clip-rule="evenodd" d="M37.243 53.229c13.227 4.093 20.635 18.18 16.526 31.406-4.11 13.227-18.176 20.641-31.433 16.549C9.08 97.091 1.701 83.004 5.81 69.777 9.919 56.55 24.016 49.107 37.243 53.23z" fill="#F3C615"/><path fill-rule="evenodd" clip-rule="evenodd" d="M33.404 65.626c6.388 1.986 9.987 8.778 7.978 15.184-1.98 6.406-8.788 9.964-15.177 7.977-6.388-1.987-9.987-8.778-7.978-15.184 1.98-6.406 8.788-9.964 15.177-7.977z" fill="#DE9006"/><path fill-rule="evenodd" clip-rule="evenodd" d="M32.414 68.828c4.619 1.424 7.198 6.347 5.758 10.944-1.44 4.626-6.328 7.206-10.947 5.753-4.619-1.424-7.198-6.347-5.759-10.943 1.41-4.597 6.329-7.177 10.948-5.754z" fill="#FFDB00"/><path fill-rule="evenodd" clip-rule="evenodd" d="M11.239 73.07L5.27 71.763c.15-.652.33-1.334.54-1.987 2.13-6.88 6.988-12.188 12.987-15.124l2.67 5.486c-4.56 2.224-8.219 6.228-9.838 11.447-.15.475-.27.98-.39 1.483z" fill="#FED223"/></svg>