<svg width="236" height="200" viewBox="0 0 236 200" fill="none" xmlns="http://www.w3.org/2000/svg"><path fill-rule="evenodd" clip-rule="evenodd" d="M123.749 187.671c30.228 0 54.747 2.755 54.747 6.164 0 3.41-24.519 6.165-54.747 6.165-30.229 0-54.748-2.755-54.748-6.165 0-3.409 24.52-6.164 54.748-6.164z" fill="#F3F8F9"/><path fill-rule="evenodd" clip-rule="evenodd" d="M143.729 184.896l-13.241-14.133h.02v-1.269c-.199-.079-.813-.158-1.467-.257l-4.738-5.055c-.079-.159-.158-.297-.237-.456-.06.02-.099.04-.139.04l-1.685-1.804c.337.079.674.079 1.011.02-.753-1.745-1.249-3.449-.991-4.559-.436.099-.793.317-1.13.634a2.33 2.33 0 00-.654 2.042l-1.705-1.824c.198-.575.535-1.11.991-1.586 1.11-1.11 2.637-1.466 4.044-1.129 3.171-2.974 6.918-7.87 9.514-9.792 2.894-2.181 5.194-5.927 6.779-8.623 1.091-1.843 5.055-5.094 5.65-6.482.574-1.308.475-4.737 1.684-5.728 5.055-4.123 4.183-11.16 5.927-12.944.397.714.615 1.428.753 2.161V111h1.943v8.543h-.456c.278.437.575.873.872 1.309a4.394 4.394 0 013.707 1.189c1.268 1.288 1.546 3.191.832 4.777.595.813 1.071 1.526 1.309 2.081l.971-1.744 1.705.971-2.439 4.282c0 .079-.019.158-.019.257l-.139.04-1.606 2.854-1.308-.733.397 1.169 2.418-.852c-.119 1.328-.198 2.676-.06 3.806.08.535.179 1.07.278 1.586-.635 0-1.269.257-1.725.753-1.011 1.011-1.011 2.656 0 3.647.872.892 2.24.991 3.251.337.317.753.654 1.487 1.031 2.2l5.054 4.024-1.229 1.546-1.347-1.07c.555 1.011 1.129 2.022 1.645 3.072a4.44 4.44 0 00-1.15.833 4.211 4.211 0 000 5.986 4.134 4.134 0 002.973 1.268c0 .496-.02.992-.02 1.507l.813.416-.575 1.883-.178-.099c.02.198.02.377.04.575l-3.588 11.933c-3.885 12.904-14.549 15.421-23.786 5.55zm18.513-22.3l.555-1.11-4.896-2.497-.555 1.13 4.896 2.477zm-57.007-1.526a3.086 3.086 0 010-4.4 3.086 3.086 0 014.4 0c1.19 1.209 1.19 3.171 0 4.4-1.248 1.209-3.211 1.209-4.4 0zm64.163-.555a2.32 2.32 0 010-3.29 1.94 1.94 0 01.614-.437c.179.417.357.813.496 1.269.337.892.456 1.982.495 3.152a2.362 2.362 0 01-1.605-.694zm-60.774-.456c.674-.654.674-1.744 0-2.418-.673-.674-1.764-.674-2.418 0a1.664 1.664 0 000 2.418 1.699 1.699 0 002.418 0zm8.782-3.231l-.06-.059.02-.02.04.079zm-1.725-2.101a1.534 1.534 0 01-.377-.614 2.472 2.472 0 00-.218.237l-4.618-4.935-3.627 1.724-.813-1.724 3.092-1.447-77.84-83.053c-9.237-9.852-6.085-20.337 7.057-23.43L198.278 3.884C211.4.79 218.893 8.78 215.008 21.704l-39.346 130.545c-.218-2.438-.318-4.955-.496-7.373-.515-6.502-3.607-20.139-5.709-26.304-2.2-6.402-10.366-23.667-7.611-30.109.039-.634.099-1.388.198-2.16.971.356 2.24.634 3.409.97l-2.18.12.059 1.17 4.599-.298c.179.119.337.257.456.416.357.456.773.832 1.189 1.17.139-.298.337-.575.555-.793 1.15-1.15 3.033-1.15 4.203 0a2.95 2.95 0 01.356 3.746c.199.139.417.258.615.396h.852c4.738-1.347 5.352-5.114 1.963-7.71-1.17-.872-10.605-3.35-15.045-5.55.674-4.024 1.189-8.147.456-11.001-.912-3.509-1.447-5.769-2.121-9.317-1.368-7.096-7.235-11.913-7.196-16.57 0-.734.298-1.745.853-1.884 1.605-.376 5.669.317 6.779-.634 1.268-1.09-.872-4.282 2.121-4.46.139-3.766-1.982-2.715-1.923-4.678.06-1.09 1.17-5.51 1.07-5.709-.693-1.447-10.089-4.935-13.538-3.805a15.29 15.29 0 00-1.863.713 5.415 5.415 0 00-6.442.873c-2.101 2.12-2.101 5.53 0 7.67a5.319 5.319 0 002.002 1.25c.119-.417.337-.794.674-1.11a2.548 2.548 0 013.627 0 2.572 2.572 0 010 3.646c-.535.536-1.229.793-1.923.734.219.535.456 1.03.635 1.506l-4.044 4.4 1.427 1.309 3.172-3.43c.02 1.408-.06 2.062-.436 3.41-.119.416-.258.793-.397 1.19a4.237 4.237 0 00-4.063 1.13c-1.566 1.565-1.645 4.082-.218 5.728.456-.08.951.079 1.328.436a1.52 1.52 0 010 2.18c-.615.595-1.566.595-2.161 0-.079-.04-.119-.119-.158-.178-.099.198-.159.376-.258.575l-2.24-3.152-1.586 1.13 2.736 3.885a2.554 2.554 0 013.231.317c1.011 1.01 1.011 2.676 0 3.667-.991 1.011-2.637 1.011-3.647 0-.119-.119-.218-.218-.278-.337a5.424 5.424 0 00-1.566.971 4.337 4.337 0 00-1.229 3.33 6.876 6.876 0 00-7.948 1.289 6.927 6.927 0 000 9.752 6.813 6.813 0 005.451 1.982 3.285 3.285 0 00.634 3.667c.377.397.832.635 1.288.793a39.114 39.114 0 01-.198 2.537l-.119-.079-1.011 1.962 4.321.734-.237 1.427-4.777-.813-2.201 4.302 1.745.911 1.645-3.23c-.139 1.189-.258 2.398-.397 3.528-.099 1.05.496 4.004.437 4.242-.06.178-.179.376-.298.574.099.06.179.159.258.238a2.573 2.573 0 010 3.648 2.609 2.609 0 01-3.647 0 2.698 2.698 0 01-.476-.694l-3.905 1.585.753 1.804 2.617-1.05c-.496.812-.872 1.665-.972 2.438a4.058 4.058 0 013.35 1.229 4.134 4.134 0 011.249 2.993c3.647-.06 2.894-8.365 3.211-11.457a6.89 6.89 0 01.357-1.705c-.614-1.526-.277-3.33.932-4.579a4.095 4.095 0 012.557-1.189c.713-1.03 1.348-2.061 1.645-3.132.059-.258.119-.515.178-.793a4.498 4.498 0 001.071 2.379c-.278.634-.575 1.249-.853 1.843a4.68 4.68 0 011.348.892 4.259 4.259 0 010 6.026 4.06 4.06 0 01-2.478 1.19c.119.396.278.792.516 1.189-.06.475-.139.912-.198 1.367a3.276 3.276 0 00-2.914.873 3.253 3.253 0 000 4.598c.376.397.832.674 1.328.793-.476 1.626-.991 3.231-1.407 4.777l-1.507-2.815-1.724.912 2.16 4.024.139-.059 2.775 6.006-1.388.654-.792-1.725c.039.476.079.952.118 1.388a4.212 4.212 0 00-5.213.614c-1.645 1.645-1.645 4.361 0 6.006.06.06.139.139.218.198-.356.238-.594.417-.693.575-.298.357-.555.734-.813 1.09l-6.839 4.441 1.408 2.16 2.359-1.546c-.397.813-.793 1.606-1.13 2.379.475.019.951.218 1.308.574.793.813.793 2.082 0 2.875-.773.773-2.002.812-2.795.059-.04.119-.079.198-.119.297l-4.539-3.052-1.11 1.625 4.916 3.271-.198.456c.951-.02 1.823.317 2.477.971 1.309 1.328 1.309 3.449 0 4.757-1.308 1.308-3.449 1.308-4.737 0-.654-.634-.971-1.526-.971-2.398-1.17-.06-2.379.337-3.271 1.249-1.328 1.328-1.566 3.33-.793 4.915l-.119.06a1.549 1.549 0 01-.02 2.16c-.614.635-1.585.635-2.18.04zm1.665-1.705c-.04-.059-.119-.099-.178-.138-.417.218-.853.456-1.249.733 0 .198.079.436.238.595h1.189c.357-.317.357-.853 0-1.19zm2.775-4.103a2.361 2.361 0 012.696-.436 43.794 43.794 0 01-1.17 1.903c-.356.496-1.05.912-1.903 1.308-.495-.872-.356-2.022.377-2.775zm6.581-1.249c.713-.733.713-1.902 0-2.616-.357-.357-.833-.535-2.18-.178l-.813 1.883c-.139.079.039.535.396.911.694.714 1.863.714 2.597 0zm34.906-3.528a1.412 1.412 0 010-2.002 1.358 1.358 0 011.189-.416c.238.852.516 1.665.793 2.438-.555.535-1.427.515-1.982-.02zm6.858.278l-.773-.476 2.101-3.37.773.496-2.101 3.35zm-39.96-4.718a1.125 1.125 0 000-1.586c-.298-.277-.714-.396-1.091-.277-.237.535-.455 1.07-.673 1.605.039.08.118.179.178.258.436.416 1.15.416 1.586 0zm34.787-1.665c-.852-1.368-.456-3.191.912-4.024a2.884 2.884 0 014.004.952c.872 1.367.436 3.151-.912 4.004a2.9 2.9 0 01-4.004-.932zm3.31-.198a1.618 1.618 0 00.515-2.2c-.475-.773-1.447-.991-2.22-.516-.753.456-.971 1.467-.495 2.201a1.583 1.583 0 002.2.515zm-60.099-4.301a5.456 5.456 0 000-7.671c-2.121-2.121-5.551-2.121-7.691 0-2.101 2.121-2.101 5.569 0 7.671 2.14 2.121 5.57 2.121 7.691 0zm52.785.733l.337-.575-.476.139.139.436zm-24.044-.079l-3.033-3.172.734-.694 3.052 3.172-.753.694zm22.617-.218l.337-1.249-5.451-1.407-.317 1.268 5.431 1.388zm-57.305-2.161c-1.17-1.169-1.17-3.033 0-4.222 1.15-1.169 3.033-1.169 4.222 0a3.015 3.015 0 010 4.222c-1.169 1.17-3.072 1.17-4.222 0zm35.64-4.559a2.631 2.631 0 01-.456-.733c-.119.079-.218.138-.318.198a2.605 2.605 0 01-.733-.515 2.321 2.321 0 010-3.291c.892-.912 2.379-.912 3.29 0 .238.258.437.555.536.872-.04.04-.04.099-.08.159.218.099.436.238.635.436a2.033 2.033 0 010 2.874 2.07 2.07 0 01-2.874 0zm2.22-.654c.436-.456.436-1.15 0-1.586a1.16 1.16 0 00-.575-.297c-.179.198-.298.377-.337.476-.119.257-.476.535-.972.852.04.218.139.416.318.575.436.416 1.149.416 1.566-.02zm20.555-.297c.515-1.864.297-2.438-.159-2.894-.456-.456-1.05-.674-2.914-.159-.793.793-.793 2.18.06 3.013.832.872 2.22.872 3.013.04zm-2.319-.734a1.195 1.195 0 010-1.704c.455-.456 1.209-.456 1.684 0a1.195 1.195 0 010 1.704c-.475.496-1.229.496-1.684 0zm-46.958-3.885l1.625-.951-4.123-7.156-1.645.952 4.143 7.155zm34.47-.456l-.793-.475 2.121-3.35.773.475-2.101 3.35zm-20.337-1.248c1.506-1.467 1.506-3.945 0-5.432a3.842 3.842 0 00-5.412 0c-1.506 1.507-1.506 3.965 0 5.432a3.806 3.806 0 005.412 0zm-4.202-1.21a2.141 2.141 0 010-2.993c.812-.832 2.16-.832 2.993 0a2.143 2.143 0 010 2.993c-.853.833-2.181.833-2.993 0zm21.863-6.898a1.554 1.554 0 010-2.18c.614-.595 1.586-.595 2.18 0 .595.615.595 1.586 0 2.18-.594.595-1.566.595-2.18 0zm1.705-1.684h-1.21a.825.825 0 000 1.189h1.21a.826.826 0 000-1.189zm-12.349-2.359c-.417-.436-.991-.654-1.586-.674.198.277.476.575.832.832.496.377.952.674 1.368.892a2.115 2.115 0 00-.614-1.05zm9.019-1.883c-.694-.694-.694-1.804 0-2.518.455-.436 1.05-.614 1.605-.475-.238 1.129-.555 2.279-.892 3.429-.258-.079-.495-.238-.713-.436zm4.975-1.447c-.833-.872-.833-2.26 0-3.112a2.178 2.178 0 013.112 0c.852.852.852 2.24 0 3.112a2.214 2.214 0 01-3.112 0zm2.418-.694c.476-.476.476-1.249 0-1.705a1.198 1.198 0 00-1.705 0c-.456.476-.456 1.249 0 1.705a1.196 1.196 0 001.705 0zm-13.578-3.429a1.412 1.412 0 000-2.002l-.139-.139c-.376.476-.832.951-1.308 1.507l-.793.317c.08.138.159.218.278.337.515.535 1.427.535 1.962-.02zm-3.885-1.784c1.645-1.665 1.645-4.36 0-6.006-1.645-1.626-4.321-1.626-5.986 0a4.272 4.272 0 000 6.006 4.211 4.211 0 005.986 0zm-4.658-1.348c-.912-.912-.912-2.398 0-3.29.932-.912 2.418-.912 3.31 0a2.357 2.357 0 010 3.29c-.892.892-2.378.892-3.31 0zm17.463-.852a2.32 2.32 0 000-3.29 2.782 2.782 0 00-.773-.516c-.555 1.447-.912 2.894-.773 4.48a2.288 2.288 0 001.546-.674zm-45.768-1.586l.614-.971-4.242-2.696-.614.971 4.242 2.696zm76.591-4.797a1.628 1.628 0 00-2.3 0 1.636 1.636 0 00-.396.634c.912.555 1.863.991 2.835 1.527a1.659 1.659 0 00-.139-2.161zm-58.118 1.308l4.976-.297-.06-1.15-4.995.317.079 1.13zm-36.61-.872a1.52 1.52 0 000-2.18c-.595-.615-1.547-.615-2.16 0a1.552 1.552 0 000 2.18 1.531 1.531 0 002.16 0zm69.158-.436c-.615-.595-.615-1.566 0-2.2a1.53 1.53 0 012.16 0c.595.634.595 1.605 0 2.2a1.464 1.464 0 01-2.16 0zM77.029 88.76h1.189c.337.337.337.853 0 1.21h-1.19c-.336-.357-.336-.893 0-1.21zm72.488-.436h-1.17c-.337.337-.337.853 0 1.21h1.17a.85.85 0 000-1.21zm-4.718-3.548c-.039.516-.258 1.249-.476 1.963-.198-.793 0-1.646.476-1.963zm4.995 0l-4.737-2.676v.08a3.754 3.754 0 00-1.467.95 6.28 6.28 0 00-.694.933c.377-2.2.654-4.52 1.17-6.581.376.971.614 1.903.773 2.775l5.708 3.23-.753 1.29zm-39.505-4.4c1.646-1.665 1.646-4.361 0-6.006a4.247 4.247 0 00-5.986 0c-1.645 1.665-1.645 4.36 0 6.006a4.247 4.247 0 005.986 0zm25.035.119a2.546 2.546 0 01-.733-1.963 1.767 1.767 0 01.456-1.645c.277-.258.575-.416.951-.476l-.039.159c1.863-.496 2.537-.238 3.032.258a2.596 2.596 0 010 3.667 2.596 2.596 0 01-3.667 0zm2.835-.833a1.412 1.412 0 000-2.002c-.555-.555-1.467-.555-2.002 0a1.45 1.45 0 000 2.002c.535.555 1.427.555 2.002 0zm-32.508-.654a2.287 2.287 0 010-3.29 2.298 2.298 0 013.271 0 2.32 2.32 0 010 3.29 2.298 2.298 0 01-3.271 0zm36.076-2.438c-1.15-1.11-1.15-2.993 0-4.123a2.872 2.872 0 014.103 0 2.895 2.895 0 010 4.123c-1.13 1.15-2.993 1.15-4.103 0zm3.171-.932c.615-.614.615-1.625 0-2.26a1.603 1.603 0 00-2.279 0c-.615.615-.615 1.626 0 2.26a1.569 1.569 0 002.279 0zm-14.747-3.052c-1.487-1.467-1.487-3.865 0-5.352a3.745 3.745 0 015.332 0 3.768 3.768 0 010 5.352 3.745 3.745 0 01-5.332 0zm-52.488 0l1.11-1.308-5.67-4.837-1.11 1.288 5.67 4.857zm72.072-3.945l-1.11-3.806.872-.237 1.11 3.805-.872.238zm-25.392-1.685c.971-1.01.971-2.616 0-3.587-.991-.992-2.597-.992-3.568 0-1.011.99-1.011 2.576 0 3.587a2.513 2.513 0 003.568 0zm-2.775-.832c-.535-.535-.535-1.427 0-1.982.555-.535 1.447-.535 1.982 0 .535.555.535 1.447 0 1.982a1.388 1.388 0 01-1.982 0zm16.908-1.07c-.912-.892-.912-2.38 0-3.29.317-.318.694-.536 1.09-.615.04 1.585.139 3.171.04 4.539a2.253 2.253 0 01-1.13-.635zm6.739-4.084c-1.407-1.407-1.407-3.667 0-5.035 1.388-1.427 3.648-1.427 5.055 0 1.368 1.368 1.368 3.628 0 5.035a3.554 3.554 0 01-5.055 0zm3.905-1.13c.773-.773.773-2.022 0-2.775-.773-.773-2.022-.773-2.775 0-.773.754-.773 2.002 0 2.775a1.95 1.95 0 002.775 0zm-7.334-.892a1.377 1.377 0 000-2.002c-.535-.555-1.447-.555-2.002 0-.059.08-.119.159-.178.218-.04.476-.06.972-.06 1.467.06.12.139.238.238.337.555.535 1.467.535 2.002-.02zm-91.021-.951c.139-.159.258-.317.337-.535l2.636.396.159-.971-2.736-.377a1.628 1.628 0 00-.396-.694 1.52 1.52 0 00-2.18 0c-.595.615-.595 1.606 0 2.2.614.576 1.585.576 2.18-.02zm-1.685-1.685l.476.912.138-.952.615.08-.06-.06c0 .02.04.04.06.06l-.436-.06h-.179l-.138.912.812.119c-.02.06-.079.1-.099.159H49.08a.838.838 0 010-1.17zm74.431-.02l6.957-1.922-.436-1.586-6.938 1.903.417 1.605zm-31.715-1.467l-.02-4.043h-.912v4.044h.932zm50.743-2.953a.864.864 0 00-.931-.198 7.316 7.316 0 00-.496.912c.04.158.099.317.238.475h1.17c.376-.356.376-.892.019-1.189zm-67.532-.495c1.645-1.646 1.645-4.342 0-6.007a4.247 4.247 0 00-5.986 0 3.873 3.873 0 00-1.05 1.824l-4.56-.099-.04 1.804 4.44.099c.14.892.516 1.724 1.21 2.379a4.247 4.247 0 005.986 0zm-4.639-1.348a2.648 2.648 0 01-.614-1.031l1.467.04.04-1.804-1.289-.02c.1-.178.218-.357.397-.496a2.297 2.297 0 013.27 0c.892.912.892 2.379 0 3.31-.892.893-2.359.893-3.27 0zm80.556-.476l-7.175-1.23c-.258.397-.476.774-.754 1.15a2.342 2.342 0 01.278-2.953c.04-.02.059-.04.059-.08l.02-.078h.06a2.32 2.32 0 011.764-.536c-.139.278-.278.516-.416.793l6.461 1.11-.297 1.824zm-37.047-1.09a2.788 2.788 0 000-3.945c-1.09-1.09-2.854-1.09-3.924 0a2.786 2.786 0 000 3.945c1.09 1.09 2.854 1.09 3.924 0zm-3.032-.912c-.575-.575-.575-1.546 0-2.16.614-.615 1.565-.615 2.16 0a1.53 1.53 0 010 2.16c-.614.614-1.566.614-2.16 0zm29.336-6.403c1.645-1.665 1.645-4.36 0-6.006-1.646-1.645-4.321-1.645-6.006 0a4.271 4.271 0 000 6.006c1.685 1.646 4.36 1.646 6.006 0zm-109.416.892l-.655-4.975 1.13-.139.655 4.956-1.13.158zm104.777-2.26a2.322 2.322 0 010-3.29 2.322 2.322 0 013.291 0 2.358 2.358 0 010 3.29 2.322 2.322 0 01-3.291 0zm15.838-3.31a1.376 1.376 0 010-1.942c.555-.555 1.407-.555 1.943 0a1.376 1.376 0 010 1.943 1.376 1.376 0 01-1.943 0zm-67.493.06l2.022-1.903-.436-.476-2.022 1.903.436.476zm68.999-1.566h-1.07a.778.778 0 000 1.09h1.07a.776.776 0 000-1.09zm-105.134-.198a1.52 1.52 0 010-2.18 1.555 1.555 0 012.18 0 1.554 1.554 0 010 2.18 1.556 1.556 0 01-2.18 0zm99.01-.654a1.45 1.45 0 000-2.002 1.412 1.412 0 00-2.002 0 1.355 1.355 0 00-.397.713c.198.496.436 1.011.654 1.487.516.337 1.269.277 1.745-.198zM49.437 33.08h-1.19a.826.826 0 000 1.19h1.19a.826.826 0 000-1.19zm71.854-2.26l6.144-1.328-.297-1.427-6.145 1.348.298 1.407zm21.685-1.407a3.015 3.015 0 010-4.222 2.957 2.957 0 012.021-.852c-1.665 1.585-1.942 3.488-1.585 5.43-.139-.118-.298-.237-.436-.356zm6.065-.952c-.991-.99-.991-2.636 0-3.647a2.633 2.633 0 013.667 0c1.011 1.011 1.011 2.656 0 3.647a2.596 2.596 0 01-3.667 0zm2.854-.812c.555-.555.555-1.487 0-2.022-.555-.555-1.466-.555-2.002 0-.555.535-.555 1.447 0 2.022.536.535 1.428.535 2.002 0z" fill="#98ECFF"/><path fill-rule="evenodd" clip-rule="evenodd" d="M53.322 83.647l3.429 14.35 19.108-4.578-3.449-14.351-19.088 4.579z" fill="#121212"/><path fill-rule="evenodd" clip-rule="evenodd" d="M.021 34.627l13.915 58.197c.1.416.535.694.951.575l97.127-23.33c.416-.1.694-.536.575-.952L98.694 10.94c-.1-.416-.535-.694-.952-.575L.616 33.695a.762.762 0 00-.595.932z" fill="#3B3B3B"/><path fill-rule="evenodd" clip-rule="evenodd" d="M2.083 34.944L15.62 91.535l95.085-22.834L97.168 12.11 2.083 34.944z" fill="#06C1ED"/><path fill-rule="evenodd" clip-rule="evenodd" d="M29.575 102.536l.635 2.657L98.674 88.74l-.634-2.636-68.465 16.432zm78.871-18.929l.634 2.636 10.05-2.418-.634-2.636-10.05 2.418z" fill="#1D1D1D"/><path fill-rule="evenodd" clip-rule="evenodd" d="M173.64 78.156l-9.911-1.606-1.883 7.73c-.575 2.28-1.626 2.518-3.073 2.617-1.328.08-2.2.178-2.239.337l15.56 2.517 15.56 2.518c0-.179-.773-.555-2.022-1.031-1.348-.535-2.26-1.11-2.101-3.449l.634-7.929-10.525-1.704z" fill="#C7CAD4"/><path fill-rule="evenodd" clip-rule="evenodd" d="M162.797 80.376l.912-3.826 9.931 1.606 10.525 1.704-.317 3.905-21.051-3.39z" fill="#C2C4CF"/><path fill-rule="evenodd" clip-rule="evenodd" d="M133.124 2.476l-10.426 64.798a2.939 2.939 0 002.418 3.37l96.988 15.658a2.93 2.93 0 003.35-2.418l10.426-64.837c.258-1.605-.832-3.112-2.418-3.35L136.474.038a2.92 2.92 0 00-3.35 2.438z" fill="#DEDFE2"/><path fill-rule="evenodd" clip-rule="evenodd" d="M123.729 60.91l9.395-58.453a2.916 2.916 0 013.35-2.419l96.988 15.66a2.93 2.93 0 012.418 3.35l-9.395 58.454L123.729 60.91z" fill="#191919"/><path fill-rule="evenodd" clip-rule="evenodd" d="M135.998 2.992l-8.939 55.58c-.02.099.059.198.158.218l96.611 15.6c.1.02.199-.06.218-.159l8.94-55.6c.02-.1-.059-.198-.159-.218l-96.611-15.58c-.099-.02-.198.04-.218.159z" fill="#1CCDF5"/><path fill-rule="evenodd" clip-rule="evenodd" d="M156.534 87.254l-.04.297c0 .04.02.08.079.1l30.942 4.995c.04 0 .079-.02.099-.06l.04-.297a.11.11 0 00-.06-.1l-30.941-4.994c-.08-.02-.119.02-.119.059z" fill="#C2C4CF"/><path fill-rule="evenodd" clip-rule="evenodd" d="M172.094 89.751l-15.56-2.517c.039-.158.911-.277 2.239-.337 1.11-.08 2.002-.238 2.597-1.348l22.2 3.588c.238 1.249 1.011 1.685 2.042 2.101 1.249.496 2.022.872 2.022 1.03l-15.54-2.517z" fill="#D9DAE2"/><path fill-rule="evenodd" clip-rule="evenodd" d="M161.251 85.767l22.379 3.608c.139.515.396.872.714 1.15l-24.143-3.905c.396-.14.753-.417 1.05-.853z" fill="#E3E5ED"/><path fill-rule="evenodd" clip-rule="evenodd" d="M161.449 85.37l22.082 3.569c.02.238.079.456.139.634l-22.558-3.647a2.17 2.17 0 00.337-.555z" fill="#ECEFF8"/><path fill-rule="evenodd" clip-rule="evenodd" d="M161.588 85.093l21.923 3.548c0 .1.02.218.02.318l-22.082-3.568c.06-.12.1-.199.139-.298z" fill="#DCDEE5"/><path fill-rule="evenodd" clip-rule="evenodd" d="M60.715 132.745l54.015-5.887a2.586 2.586 0 002.299-2.855l-4.262-39.366a2.585 2.585 0 00-2.854-2.299l-54.014 5.867a2.586 2.586 0 00-2.3 2.855l4.262 39.385a2.586 2.586 0 002.854 2.3z" fill="#343434"/><path fill-rule="evenodd" clip-rule="evenodd" d="M59.308 128.523l55.838-6.066-4.123-37.998-55.818 6.085 4.103 37.979z" fill="#1CCDF5"/><path fill-rule="evenodd" clip-rule="evenodd" d="M60.577 131.536l54.014-5.887c1.407-.159 2.755-.218 3.013-.139l9.732 3.191c.436.139-.773.436-2.715.634l-73.698 8.028c-1.942.218-3.171.179-2.735-.039l9.415-5.273c.218-.139 1.566-.357 2.974-.515z" fill="#C2C4CF"/><path fill-rule="evenodd" clip-rule="evenodd" d="M50.13 136.333l-2.14.218.099.892 2.041-1.11zm75.145-8.167l2.141-.258.079.892-2.22-.634z" fill="#C2C4CF"/><path fill-rule="evenodd" clip-rule="evenodd" d="M60.497 130.703l54.015-5.867c1.407-.159 2.755-.218 3.012-.139l9.733 3.191c.436.139-.773.436-2.716.635l-73.717 8.027c-1.942.219-3.171.179-2.735-.039l9.395-5.293c.258-.138 1.586-.356 3.013-.515z" fill="#E5E7EB"/><path fill-rule="evenodd" clip-rule="evenodd" d="M112.51 125.153l-50.368 5.471-4.717 3.27 59.961-6.521-4.876-2.22z" fill="#303030"/><path fill-rule="evenodd" clip-rule="evenodd" d="M95.562 129.99l-16.095 1.764-.773 1.169 17.581-1.922-.713-1.011z" fill="#CCD0D6"/><path fill-rule="evenodd" clip-rule="evenodd" d="M129.279 117.304l31.199-32.785c.654-.674.615-1.745-.059-2.399l-20.714-19.802c-.674-.654-1.744-.614-2.398.06l-31.18 32.785c-.654.674-.614 1.744.059 2.398l20.714 19.802a1.67 1.67 0 002.379-.059z" fill="#434343"/><path fill-rule="evenodd" clip-rule="evenodd" d="M108.129 93.379l1.249-1.308a.126.126 0 000-.179l-.119-.119c-.06-.06-.139-.06-.179 0l-1.248 1.309c-.04.06-.04.138 0 .178l.119.119c.039.06.118.06.178 0zm2.735-2.894l2.855-2.993c.059-.06.059-.139 0-.179l-.119-.119a.126.126 0 00-.179 0l-2.854 2.993c-.04.06-.04.14 0 .179l.119.119c.059.06.139.06.178 0z" fill="#434343"/><path fill-rule="evenodd" clip-rule="evenodd" d="M128.268 116.709l31.576-33.182-21.487-20.535-31.576 33.182 21.487 20.535z" fill="#0ACCF9"/><path fill-rule="evenodd" clip-rule="evenodd" d="M114.967 104.836c-.158 0-.277-.119-.297-.278 0-.158.119-.297.278-.297.158 0 .277.119.297.277 0 .159-.119.298-.278.298zm2.28 2.022c-.079 0-.159-.08-.159-.159s.08-.159.159-.159.159.08.159.159-.08.159-.159.159zm1.11 1.07c-.079 0-.159-.079-.159-.158 0-.08.08-.159.159-.159s.159.079.159.159c0 .079-.08.138-.159.158zm.476.456a.17.17 0 01-.159-.159c0-.079.079-.158.159-.158a.17.17 0 01.158.158c0 .08-.079.159-.158.159zm1.566 1.645c-.159 0-.278-.119-.298-.277 0-.159.119-.298.278-.298.158 0 .277.119.297.278 0 .158-.119.297-.277.297z" fill="#2C2C2C"/><path fill-rule="evenodd" clip-rule="evenodd" d="M116.375 164.42l.476-2.755h.019c0-.099.02-.198.02-.298l6.363-36.61c.159-.952 1.07-1.566 2.002-1.408l58.018 10.149a1.735 1.735 0 011.408 2.002l-6.383 36.611c-.02.099-.04.198-.079.277h.019l-.475 2.756-61.388-10.724z" fill="#3B3B3B"/><path fill-rule="evenodd" clip-rule="evenodd" d="M109.001 161.665l-.357 2.002 75.997 13.28.357-1.982-75.997-13.3z" fill="#1D1D1D"/><path fill-rule="evenodd" clip-rule="evenodd" d="M125.532 126.342l-6.025 34.629 56.789 9.931 6.026-34.629-56.79-9.931z" fill="#0ACCF9"/><path fill-rule="evenodd" clip-rule="evenodd" d="M158.595 132.566l-8.385-40.793a1.454 1.454 0 011.13-1.724l27.87-5.768a1.453 1.453 0 011.724 1.13l8.385 40.793a1.454 1.454 0 01-1.13 1.724l-27.869 5.768a1.44 1.44 0 01-1.725-1.13z" fill="#434343"/><path fill-rule="evenodd" clip-rule="evenodd" d="M151.836 93.696l7.492 36.432c.02.079.1.139.179.119l28.048-5.788c.079-.02.138-.099.119-.178l-7.493-36.452c-.02-.08-.099-.14-.178-.12l-28.048 5.789c-.08.04-.139.118-.119.198z" fill="#1CCDF5"/><path fill-rule="evenodd" clip-rule="evenodd" d="M173.184 128.444a.996.996 0 011.387-.139.996.996 0 01.139 1.387.996.996 0 01-1.387.139c-.436-.357-.496-.971-.139-1.387zm-7.671-39.564c.079-.1.238-.12.357-.04a.271.271 0 01.039.356c-.079.1-.238.12-.356.04-.119-.099-.139-.258-.04-.357zm-67.117 44.479l7.156 28.702a1.436 1.436 0 001.744 1.051l11.794-2.954a1.452 1.452 0 001.051-1.744l-7.156-28.702a1.435 1.435 0 00-1.744-1.05l-11.794 2.953a1.42 1.42 0 00-1.05 1.744z" fill="#2C2C2C"/><path fill-rule="evenodd" clip-rule="evenodd" d="M98.773 133.557l6.997 28.068c.139.535.654.852 1.189.714l11.993-2.993a.976.976 0 00.713-1.19l-6.997-28.067c-.139-.536-.654-.853-1.189-.714l-11.992 2.993a.958.958 0 00-.714 1.189z" fill="#39DAFF"/><path fill-rule="evenodd" clip-rule="evenodd" d="M113.798 133.835l.416 1.705c.02.059.08.079.119.079l.099-.02c.06-.02.08-.079.08-.119l-.417-1.704c-.019-.06-.079-.08-.119-.08l-.099.02c-.059.02-.099.08-.079.119zm-14.529 3.826l.931 3.706c.02.06.079.099.119.08l.099-.02c.06-.02.099-.08.08-.119l-.932-3.707c-.02-.059-.08-.099-.119-.079l-.1.02c-.059 0-.098.059-.078.119zm1.407 5.649l.456 1.823c.02.06.079.08.119.08l.099-.02c.059-.02.079-.079.079-.119l-.456-1.824c-.02-.059-.079-.099-.119-.079l-.099.02c-.059.02-.099.079-.079.119z" fill="#2C2C2C"/><path fill-rule="evenodd" clip-rule="evenodd" d="M109.437 131.06l.02.079a.72.72 0 00.852.516l1.388-.337a.691.691 0 00.495-.853l-.019-.079a.719.719 0 00-.853-.515l-1.387.337c-.357.099-.575.475-.496.852z" fill="#03A0C4"/><path fill-rule="evenodd" clip-rule="evenodd" d="M109.873 130.763a.266.266 0 01.377-.099.27.27 0 01.099.376.266.266 0 01-.377.099.27.27 0 01-.099-.376zm1.388-.357a.265.265 0 01.376-.099c.139.079.179.257.099.376a.265.265 0 01-.376.099.265.265 0 01-.099-.376z" fill="#fff"/><path fill-rule="evenodd" clip-rule="evenodd" d="M102.579 38.314c-.694-.634-.872-1.23-.892-1.626-.06-.852.258-1.367.951-2.14l17.305-19.307c.693-.773 1.169-1.15 2.021-1.189.397-.02 1.011.1 1.705.714l7.75 6.997c.694.634.873 1.229.892 1.625.06.852-.257 1.368-.951 2.14l-17.304 19.307c-.694.773-1.17 1.15-2.022 1.19-.397.02-1.011-.1-1.705-.714l-7.75-6.997zm16.472-22.101c-.02-.02-.02-.02 0 0-.02-.02-.02-.02-.04-.02h-.059l-.02.02-.714.793-.02.02v.099l.02.02.813-.912.02-.02zm-1.527 1.685c-.019 0-.019 0 0 0-.019-.02-.019-.02-.039-.02h-.06l-.02.02-1.447 1.605-.019.02v.119l.019.02 1.547-1.725.019-.04z" fill="#434343"/><path fill-rule="evenodd" clip-rule="evenodd" d="M115.602 20.098s-.02 0 0 0c-.02 0-.02 0 0 0l-.02-.02h-.06s-.019 0-.019.02l-1.447 1.605-.02.02v.1l.02.02 1.546-1.745zm10.525 11.437l.02-.02 2.299-2.557c0-.02.02-.02.02-.02 0-.02.02-.02.02-.02 0-.02 0-.039-.02-.059l-.02-.02-.02-.02-2.438 2.716.02.02c.02.02.06.02.079.02.02-.02.04-.02.04-.04z" fill="#434343"/><path fill-rule="evenodd" clip-rule="evenodd" d="M131.519 23.448c-.02-.238-.139-.615-.635-1.07l-.892-.794c-.059-.04-.138-.059-.238.04-.138.139-.337.317-.614.337a.76.76 0 01-.575-.198l-4.559-4.103a.699.699 0 01-.258-.535c0-.278.159-.496.278-.655.099-.118.059-.198.02-.257l-.912-.813c-.496-.436-.892-.535-1.13-.515-.555.02-.872.257-1.447.912l-17.304 19.306c-.575.654-.773.971-.753 1.546.019.238.138.614.634 1.07l7.75 6.978c.496.456.892.535 1.13.515.555-.02.872-.258 1.447-.912l17.304-19.306c.595-.654.793-.971.754-1.546z" fill="#40DBFF"/><path fill-rule="evenodd" clip-rule="evenodd" d="M128.268 20.415c-.099.1-.238.1-.337.02-.099-.08-.099-.238-.02-.337.079-.1.238-.1.337-.02.099.08.099.238.02.337zm-.734-.655c-.039.06-.118.06-.178.02l-1.249-1.13c-.059-.059-.059-.138 0-.177.04-.06.139-.06.179-.02l1.248 1.13c.04.04.04.118 0 .178z" fill="#2C2C2C"/><path fill-rule="evenodd" clip-rule="evenodd" d="M48.763 83.567L31.28 64.915c-9.237-9.852-6.085-20.337 7.057-23.43l62.359-14.668 1.863 7.81c-.634.714-.912 1.23-.872 2.042.02.396.198.991.892 1.625l1.09.972 7.037 29.415-61.943 14.886zm28.9-10.981l1.11-1.308-5.67-4.837-1.11 1.308 5.67 4.837zM50.765 57.997a1.64 1.64 0 00.337-.535l2.636.396.159-.97-2.736-.377a1.627 1.627 0 00-.396-.694 1.518 1.518 0 00-2.18 0c-.595.614-.595 1.605 0 2.18a1.554 1.554 0 002.18 0zm-1.685-1.685l.476.912.138-.912-.138.912.138-.951.615.079-.436-.06h-.179l-.138.912.812.12c-.02.059-.079.098-.099.158H49.08a.837.837 0 010-1.17zm1.19 0l.059.06-.06-.06zm41.526-1.486l-.02-4.044h-.912v4.044h.932zm-16.79-3.45c1.646-1.645 1.646-4.34 0-6.005a4.247 4.247 0 00-5.985 0 3.873 3.873 0 00-1.05 1.823l-4.56-.099-.04 1.804 4.44.099c.14.892.516 1.724 1.21 2.379a4.247 4.247 0 005.986 0zm-4.638-1.327a2.513 2.513 0 01-.614-1.031l1.467.04.04-1.804-1.289-.02c.1-.178.218-.357.397-.496a2.297 2.297 0 013.27 0c.892.912.892 2.379 0 3.31-.892.873-2.359.873-3.27 0zM30.765 42.04l-.655-4.976 1.13-.138.655 4.955-1.13.159zm53.122-5.51l2.022-1.904-.436-.476-2.022 1.903.436.476zm-36.135-1.765a1.518 1.518 0 010-2.18 1.556 1.556 0 012.18 0 1.554 1.554 0 010 2.18 1.555 1.555 0 01-2.18 0zm1.685-1.685h-1.19a.826.826 0 000 1.19h1.19a.826.826 0 000-1.19z" fill="#008AAA"/><path fill-rule="evenodd" clip-rule="evenodd" d="M200.26 70.584l-37.839-6.105a166.612 166.612 0 01-1.011-4.857c-1.368-7.096-7.235-11.893-7.195-16.55 0-.734.297-1.745.852-1.884 1.605-.377 5.669.317 6.779-.634 1.268-1.09-.872-4.282 2.121-4.46.139-3.766-1.982-2.716-1.923-4.678.06-1.09 1.17-5.51 1.07-5.709-.693-1.447-10.089-4.935-13.538-3.806a15.29 15.29 0 00-1.863.714 5.415 5.415 0 00-6.442.872c-2.101 2.121-2.101 5.53 0 7.671a5.328 5.328 0 002.002 1.25c.119-.417.337-.794.674-1.111a2.548 2.548 0 013.627 0 2.572 2.572 0 010 3.647c-.535.535-1.229.793-1.922.734.218.535.455 1.03.634 1.506l-4.044 4.4 1.427 1.309 3.172-3.43c.02 1.408-.06 2.062-.436 3.41-.119.416-.258.813-.397 1.19a4.237 4.237 0 00-4.063 1.13c-1.566 1.565-1.645 4.082-.218 5.728.456-.08.951.079 1.328.436a1.52 1.52 0 010 2.18c-.615.595-1.566.595-2.161 0-.079-.04-.119-.119-.158-.178-.099.198-.159.376-.258.575l-2.24-3.152-1.586 1.13 2.736 3.904a2.554 2.554 0 013.231.318c1.011 1.01 1.011 2.676 0 3.667-.991 1.01-2.636 1.01-3.647 0-.119-.12-.218-.218-.278-.337a4.42 4.42 0 00-1.546.971l-9.911-1.605c-.099-.02-.178-.12-.158-.219l.555-3.429 2.854-.793-.436-1.585-2.141.594 5.491-34.272 42.26-9.93 40.337 6.521c-.04 1.844-.377 3.846-1.031 5.986l-14.708 48.88zm-55.045-9.614c-1.407-1.407-1.407-3.667 0-5.035 1.388-1.427 3.648-1.427 5.055 0 1.368 1.368 1.368 3.628 0 5.035a3.554 3.554 0 01-5.055 0zm3.905-1.13c.773-.773.773-2.022 0-2.775-.773-.773-2.021-.773-2.775 0-.773.754-.773 2.002 0 2.775a1.95 1.95 0 002.775 0zm-7.334-.892a1.377 1.377 0 000-2.002c-.535-.555-1.447-.555-2.002 0-.059.08-.119.159-.178.218-.04.476-.06.952-.06 1.467.06.12.139.238.238.337.555.535 1.467.535 2.002-.02zm.754-7.076a.866.866 0 00-.932-.198 7.316 7.316 0 00-.496.912c.04.158.099.317.238.475h1.17c.376-.356.376-.872.02-1.189zm8.384-2.32l-7.175-1.228c-.258.396-.476.773-.754 1.15a2.342 2.342 0 01.278-2.954c.04-.02.059-.04.059-.08l.02-.078h.06a2.32 2.32 0 011.764-.536c-.139.278-.278.516-.416.793l6.461 1.11-.297 1.824zm-10.743-8.404c1.645-1.665 1.645-4.36 0-6.006-1.645-1.645-4.321-1.645-6.006 0a4.272 4.272 0 000 6.006c1.685 1.646 4.361 1.646 6.006 0zm-4.639-1.367a2.322 2.322 0 010-3.29 2.322 2.322 0 013.291 0 2.358 2.358 0 010 3.29 2.322 2.322 0 01-3.291 0zm15.838-3.31a1.376 1.376 0 010-1.943c.555-.555 1.407-.555 1.943 0a1.376 1.376 0 010 1.943 1.376 1.376 0 01-1.943 0zm1.506-1.507h-1.07a.778.778 0 000 1.09h1.07a.776.776 0 000-1.09zm-6.124-.852a1.45 1.45 0 000-2.002 1.412 1.412 0 00-2.002 0 1.362 1.362 0 00-.397.713c.198.496.436 1.011.654 1.487.516.337 1.269.277 1.745-.198zm-3.786-4.698a3.015 3.015 0 010-4.222 2.957 2.957 0 012.021-.852c-1.665 1.585-1.942 3.488-1.585 5.43-.139-.118-.298-.237-.436-.356zm6.065-.952c-.991-.99-.991-2.636 0-3.647a2.633 2.633 0 013.667 0c1.011 1.011 1.011 2.656 0 3.647a2.596 2.596 0 01-3.667 0zm2.854-.812c.555-.555.555-1.487 0-2.022-.555-.555-1.466-.555-2.002 0-.555.535-.555 1.447 0 2.022.536.535 1.428.535 2.002 0zM87.97 125.411L55.284 90.524l21.289-2.319c-.02.02-.04.04-.06.04-.594.614-.594 1.586 0 2.18a1.531 1.531 0 002.16 0c.615-.594.615-1.566 0-2.18a1.158 1.158 0 00-.316-.238l32.666-3.548.535 4.975-5.451 5.729c-.654.674-.614 1.744.06 2.398l6.997 6.68 1.982 18.216-27.176 2.954zm21.725-3.727l1.625-.951-4.123-7.156-1.645.951 4.143 7.156zM96.831 94.806l.614-.971-4.242-2.696-.614.971 4.242 2.696zM77.029 88.76h1.189c.337.337.337.852 0 1.21h-1.19c-.336-.358-.336-.873 0-1.21z" fill="#08ABD0"/><path fill-rule="evenodd" clip-rule="evenodd" d="M128.268 116.709l-21.487-20.535 20.773-21.824c.139.159.258.297.417.456a6.812 6.812 0 005.45 1.982 3.285 3.285 0 00.635 3.667c.376.397.832.634 1.288.793a39.114 39.114 0 01-.198 2.537l-.119-.08-1.011 1.963 4.321.733-.238 1.428-4.777-.813-2.2 4.301 1.744.912 1.646-3.23c-.139 1.189-.258 2.378-.397 3.528-.099 1.05.496 4.004.436 4.241-.059.179-.178.377-.297.575.099.06.178.159.258.238a2.572 2.572 0 010 3.647 2.61 2.61 0 01-3.648 0 2.702 2.702 0 01-.475-.694l-3.905 1.586.753 1.804 2.617-1.051c-.496.813-.873 1.665-.972 2.438a4.065 4.065 0 013.35 1.229 4.136 4.136 0 011.249 2.994c3.647-.08 2.894-8.365 3.211-11.458.04-.594.178-1.169.357-1.704-.615-1.526-.278-3.33.931-4.579a4.1 4.1 0 012.557-1.19c.714-1.03 1.348-2.06 1.646-3.131.059-.258.119-.515.178-.793a4.504 4.504 0 001.07 2.379c-.277.634-.574 1.248-.852 1.843a4.68 4.68 0 011.348.892 4.259 4.259 0 010 6.026 4.06 4.06 0 01-2.478 1.19c.119.396.278.792.516 1.188-.06.476-.139.912-.199 1.368a3.232 3.232 0 00-2.913.892c-1.031 1.031-1.209 2.597-.575 3.826l-10.01 10.426zm2.577-8.88c-.417-.436-.991-.654-1.586-.674.198.277.476.575.832.832.496.377.952.674 1.368.892a2.115 2.115 0 00-.614-1.05zm9.019-4.401c.436-.416.991-.594 1.526-.495l-2.002 2.101a1.741 1.741 0 01.476-1.606zm-6.185-3.052a1.412 1.412 0 000-2.002l-.139-.139c-.376.476-.832.952-1.308 1.507l-.793.317c.08.138.159.218.278.337.515.535 1.427.535 1.962-.02zm-3.885-1.764c1.645-1.665 1.645-4.361 0-6.006-1.645-1.626-4.321-1.626-5.986 0a4.271 4.271 0 000 6.006 4.247 4.247 0 005.986 0zm-4.658-1.368c-.912-.912-.912-2.398 0-3.29.932-.912 2.418-.912 3.31 0a2.357 2.357 0 010 3.29c-.892.912-2.378.912-3.31 0zm17.463-.852a2.32 2.32 0 000-3.29 2.785 2.785 0 00-.773-.516c-.555 1.447-.912 2.894-.773 4.48a2.288 2.288 0 001.546-.674zm-27.295-5.075l4.976-.297-.06-1.15-4.995.317.079 1.13zm32.548-1.308c-.615-.595-.615-1.566 0-2.2a1.53 1.53 0 012.16 0c.595.634.595 1.605 0 2.2a1.464 1.464 0 01-2.16 0zm1.665-1.685h-1.17c-.337.337-.337.853 0 1.21h1.17a.85.85 0 000-1.21zm-4.718-3.548c-.039.516-.258 1.249-.476 1.963-.198-.793 0-1.646.476-1.963zm4.995 0l-4.737-2.676v.08a3.754 3.754 0 00-1.467.951 6.276 6.276 0 00-.694.932c.377-2.2.654-4.52 1.17-6.581.376.971.614 1.903.773 2.775l5.708 3.23-.753 1.29zm-14.47-4.281a2.546 2.546 0 01-.733-1.963 1.767 1.767 0 01.456-1.645c.277-.258.575-.416.951-.476l-.039.159c1.863-.496 2.537-.238 3.032.258a2.596 2.596 0 010 3.667 2.596 2.596 0 01-3.667 0zm2.835-.833a1.412 1.412 0 000-2.002c-.555-.555-1.467-.555-2.002 0a1.449 1.449 0 000 2.002c.535.555 1.427.555 2.002 0zm3.568-3.092a2.895 2.895 0 010-4.123 2.872 2.872 0 014.103 0 2.895 2.895 0 010 4.123c-1.13 1.17-2.993 1.17-4.103 0zm3.171-.932c.615-.614.615-1.625 0-2.26a1.603 1.603 0 00-2.279 0c-.615.615-.615 1.626 0 2.26a1.568 1.568 0 002.279 0zm-14.747-3.052a3.514 3.514 0 01-.436-.516l5.094-5.351c.238.138.456.317.674.535a3.768 3.768 0 010 5.352 3.763 3.763 0 01-5.332-.02zm8.325-7.513a2.25 2.25 0 01-.674-1.506l.555-.575 1.308 1.249c0 .515 0 1.01-.039 1.467a2.547 2.547 0 01-1.15-.635z" fill="#09A7CB"/><path fill-rule="evenodd" clip-rule="evenodd" d="M170.369 169.871l-47.294-8.266c-.655-1.605-1.051-3.132-.833-4.182-.436.099-.793.317-1.13.634a2.33 2.33 0 00-.654 2.042l-.535-.555c.198-.317.277-.714.178-1.11l-.099-.416.317-1.784c1.031-.734 2.3-.932 3.469-.655 3.172-2.973 6.918-7.869 9.515-9.792 2.894-2.18 5.193-5.926 6.779-8.622 1.09-1.843 5.054-5.094 5.649-6.482.099-.198.158-.456.238-.753l12.527 2.2.099.456a1.454 1.454 0 001.725 1.13l1.724-.357-1.249 2.22-1.308-.733.397 1.169 2.418-.852c-.119 1.328-.198 2.676-.06 3.806.08.535.179 1.07.278 1.586-.634 0-1.269.257-1.725.753-1.011 1.011-1.011 2.656 0 3.647.873.892 2.24.991 3.251.337.317.753.654 1.487 1.031 2.2l5.054 4.024-1.229 1.546-1.347-1.07c.555 1.011 1.129 2.022 1.645 3.072a4.44 4.44 0 00-1.15.833 4.211 4.211 0 000 5.986 4.113 4.113 0 002.973 1.249c0 .495-.019.991-.019 1.506l.812.416-.575 1.883-.178-.099c.02.198.02.377.04.575l-.734 2.458zm-8.127-7.275l.555-1.11-4.896-2.497-.555 1.13 4.896 2.477zm7.156-2.081a2.32 2.32 0 01.614-3.726c.179.416.357.812.496 1.268.337.872.456 1.982.496 3.152a2.363 2.363 0 01-1.606-.694zm5.768-15.639c-.198-2.577-.813-6.244-1.586-10.129l6.997 1.229-4.896 16.273c-.237-2.438-.336-4.935-.515-7.373zm-53.895 5.926l.436-2.557c.376 0 .753.08 1.09.238a63.41 63.41 0 01-1.169 1.923c-.08.139-.218.277-.357.396zm1.744-2.061c-.654-.634-.971-1.507-.971-2.379l.951-5.47 2.498 1.665-.198.455c.951-.019 1.823.318 2.477.972 1.309 1.328 1.309 3.449 0 4.757a3.374 3.374 0 01-4.757 0zm3.687-1.07c.714-.734.714-1.903 0-2.617-.357-.357-.833-.535-2.18-.178l-.813 1.883c-.139.079.04.535.396.912.694.713 1.864.713 2.597 0zm34.906-3.529a1.412 1.412 0 010-2.002 1.358 1.358 0 011.189-.416c.238.852.516 1.665.793 2.438-.555.535-1.427.515-1.982-.02zm6.858.278l-.773-.476 2.101-3.37.773.496-2.101 3.35zm-42.121-4.024c-.039.119-.079.198-.119.297l-2.854-1.922 2.16-12.409 7.989 1.408c.019 0 .019.019.039.019-.357.238-.594.417-.693.575-.298.357-.555.734-.813 1.09l-6.839 4.44 1.408 2.161 2.358-1.546c-.396.813-.792 1.605-1.129 2.379.475.019.951.218 1.308.574.793.813.793 2.082 0 2.875-.793.773-2.042.812-2.815.059zm2.161-.694a1.125 1.125 0 000-1.586c-.298-.277-.714-.396-1.09-.277-.238.535-.456 1.07-.674 1.606.039.079.119.178.178.257.436.416 1.15.416 1.586 0zm34.787-1.665c-.852-1.368-.456-3.191.912-4.024a2.884 2.884 0 014.004.952c.872 1.368.436 3.151-.912 4.004a2.9 2.9 0 01-4.004-.932zm3.31-.198a1.618 1.618 0 00.515-2.2c-.475-.773-1.446-.991-2.22-.516-.753.456-.971 1.467-.495 2.201a1.583 1.583 0 002.2.515zm-7.314-3.568l.337-.575-.476.139.139.436zm-24.044-.079l-3.033-3.172.734-.693 3.052 3.171-.753.694zm22.617-.218l.337-1.249-5.451-1.407-.317 1.268 5.431 1.388z" fill="#08ABD0"/><path fill-rule="evenodd" clip-rule="evenodd" d="M159.328 130.128l-.733-3.528c.139-.079.238-.178.357-.297.515-1.864.297-2.438-.159-2.894-.238-.238-.495-.417-.951-.456l-.436-2.141a4.282 4.282 0 012.735 1.229c1.269 1.288 1.546 3.191.833 4.777.594.813 1.07 1.526 1.308 2.081l.971-1.744 1.705.971-.634 1.11-4.857 1.011c-.039.02-.119-.04-.139-.119zm10.129-11.556c-1.903-5.55-8.305-19.247-8.166-26.997l12.924-2.676c.059.04.119.1.158.159a2.949 2.949 0 01.357 3.746c.198.139.416.257.614.396h.853c3.488-.99 4.737-3.31 3.786-5.49h.039c.08-.02.159.04.179.119l6.045 29.356-2.418 8.027-11.814 2.438c-.872-3.548-1.784-6.798-2.557-9.078zm-11.08 6.938l-.377-1.883c.119.059.238.138.337.238.456.475.476 1.169.04 1.645zm-2.299-11.2l-.674-3.29h.674v3.29zm17.344-24.301a1.628 1.628 0 00-2.3 0 1.636 1.636 0 00-.396.634c.912.555 1.863 1.011 2.834 1.526a1.658 1.658 0 00-.138-2.16z" fill="#06A5C9"/><path fill-rule="evenodd" clip-rule="evenodd" d="M105.731 161.486l-1.031-4.123c.139-.238.317-.475.515-.693a3.087 3.087 0 014.401 0c1.189 1.209 1.189 3.171 0 4.4a3.127 3.127 0 01-3.885.416zm2.894-1.427c.673-.654.673-1.744 0-2.418-.674-.674-1.765-.674-2.419 0a1.666 1.666 0 000 2.418 1.7 1.7 0 002.419 0zm10.822-1.051l-.694-.733a3.94 3.94 0 01.635-1.169l.257 1.03c.1.317 0 .635-.198.872zm-2.041-2.18l-.06-.059.02-.02.04.079zm-1.725-2.101a1.534 1.534 0 01-.377-.614 2.472 2.472 0 00-.218.237l-4.618-4.935-3.627 1.724-.813-1.724 3.092-1.447-9.197-9.812-1.15-4.599c0-.019-.02-.059-.02-.079l.06.06c2.141 2.12 5.57 2.12 7.691 0a5.403 5.403 0 001.566-3.311l3.429-.852c.535-.139 1.05.198 1.189.714l4.936 19.801c-.139.892-.02 1.804.396 2.617l-.119.059a1.55 1.55 0 01-.02 2.161c-.634.595-1.605.595-2.2 0zm1.665-1.705c-.04-.059-.119-.099-.178-.138-.417.218-.853.455-1.249.733 0 .198.079.436.238.595h1.189c.357-.318.357-.853 0-1.19zm-16.551-20.991l4.599-1.15a2.815 2.815 0 01-.615.932c-1.11 1.09-2.815 1.17-3.984.218zm9.514-.396l1.388-.337a.719.719 0 00.515-.853l-.02-.079a.707.707 0 00-.832-.515l-1.388.337a.691.691 0 00-.495.852l.02.079a.647.647 0 00.812.516z" fill="#029EC2"/><path fill-rule="evenodd" clip-rule="evenodd" d="M111.4 45.053a1.535 1.535 0 011.149.04c-.158.08-.337.1-.535.119-.139 0-.357-.04-.614-.159zm2.14-.832c-.951-.674-2.24-.694-3.191-.02l-7.215-6.502c-.496-.455-.615-.832-.634-1.07-.04-.575.158-.892.753-1.546l10.089-11.239 13.935-3.27 1.328 1.189a.76.76 0 00.575.198c.277-.02.475-.198.614-.337.099-.1.198-.08.238-.04l.892.793c.496.456.614.833.634 1.07.04.556-.178.893-.753 1.547l-3.469 3.885-.178-.793-6.145 1.348.297 1.407 5.293-1.15-13.063 14.53z" fill="#008AAA"/><path fill-rule="evenodd" clip-rule="evenodd" d="M129.199 74.667c2.419-2.418 6.324-2.418 8.722 0 2.418 2.418 2.418 6.343 0 8.742-2.418 2.418-6.323 2.418-8.722 0a6.21 6.21 0 010-8.742z" fill="#fff" fill-opacity=".47"/><path fill-rule="evenodd" clip-rule="evenodd" d="M121.925 103.587c-13.519-6.442-19.287-22.656-12.864-36.214 6.422-13.558 22.616-19.327 36.135-12.885 12.249 5.828 18.117 19.683 14.351 32.31l-4.678-2.22c2.596-10.03-2.181-20.853-11.874-25.471-10.981-5.233-24.123-.535-29.336 10.466-5.213 11-.535 24.182 10.446 29.396a21.867 21.867 0 0012.369 1.942l1.744 4.896a26.805 26.805 0 01-16.293-2.22z" fill="#fff" fill-opacity=".51"/><path fill-rule="evenodd" clip-rule="evenodd" d="M131.598 77.065a2.764 2.764 0 013.925 0c1.09 1.09 1.09 2.855 0 3.925a2.764 2.764 0 01-3.925 0c-1.07-1.07-1.07-2.834 0-3.925z" fill="#fff"/><path fill-rule="evenodd" clip-rule="evenodd" d="M112.966 122.497c-23.945-11.398-34.133-40.12-22.776-64.103 11.378-23.985 40.04-34.213 63.965-22.815 22.934 10.921 33.261 37.76 24.083 61.09l-2.993-1.328c8.464-21.724-1.149-46.64-22.497-56.809-22.32-10.624-49.019-1.09-59.624 21.269-10.605 22.359-1.09 49.138 21.229 59.762a44.435 44.435 0 0031.517 2.597l.911 3.132a47.766 47.766 0 01-33.815-2.795z" fill="#fff" fill-opacity=".19"/><path fill-rule="evenodd" clip-rule="evenodd" d="M158.318 109.236l21.645-7.73-46.026-21.903 16.749 47.156 7.632-17.523z" fill="#fff" stroke="#005265" stroke-width="1.321" stroke-miterlimit="10" stroke-linecap="round" stroke-linejoin="round"/></svg>