<svg width="168" height="161" viewBox="0 0 168 161" fill="none" xmlns="http://www.w3.org/2000/svg"><path fill-rule="evenodd" clip-rule="evenodd" d="M32.623 31.31c27.893-27.863 73.173-27.863 101.066 0 27.894 27.864 27.894 73.098 0 100.976-27.893 27.864-73.173 27.864-101.066 0-27.894-27.878-27.894-73.112 0-100.976z" fill="#0AC1F9"/><path fill-rule="evenodd" clip-rule="evenodd" d="M62.587 120.872L122.82 86.13c3.024-1.739 3.024-4.581 0-6.32L62.587 45.068c-3.023-1.738-5.473-.332-5.473 3.16v69.484c0 3.493 2.45 4.899 5.473 3.16z" fill="#fff"/><path fill-rule="evenodd" clip-rule="evenodd" d="M40.847 137.427c5.276-5.277 13.864-5.277 19.14 0 5.276 5.276 5.276 13.848 0 19.125-5.276 5.276-13.864 5.276-19.14 0-5.276-5.277-5.291-13.849 0-19.125z" fill="#74D70B"/><path fill-rule="evenodd" clip-rule="evenodd" d="M44.566 148.75h12.67v-3.084h-12.67v3.084z" fill="#fff"/><path fill-rule="evenodd" clip-rule="evenodd" d="M52.458 153.543v-12.669h-3.114v12.669h3.114z" fill="#fff"/><path fill-rule="evenodd" clip-rule="evenodd" d="M58.657 3.084c4.112-4.112 10.794-4.112 14.906 0 4.113 4.112 4.113 10.795 0 14.907-4.112 4.112-10.794 4.112-14.906 0-4.113-4.112-4.113-10.795 0-14.907z" fill="#74D70B"/><path fill-rule="evenodd" clip-rule="evenodd" d="M61.56 11.913h9.872V9.494h-9.873v2.42z" fill="#fff"/><path fill-rule="evenodd" clip-rule="evenodd" d="M67.697 15.633V5.774h-2.419v9.857h2.42z" fill="#fff"/><path fill-rule="evenodd" clip-rule="evenodd" d="M35.268 33.956c26.427-26.412 69.349-26.412 95.776 0 26.427 26.412 26.427 69.273 0 95.685-26.427 26.412-69.349 26.412-95.776 0-26.427-26.412-26.427-69.288 0-95.685z" fill="#0AC1F9"/><path fill-rule="evenodd" clip-rule="evenodd" d="M63.66 118.831l57.088-32.928c2.857-1.648 2.857-4.339 0-5.987L63.661 46.988c-2.858-1.648-5.186-.317-5.186 2.993v65.857c0 3.295 2.328 4.641 5.186 2.993z" fill="#fff"/><path fill-rule="evenodd" clip-rule="evenodd" d="M32.623 132.286c-27.894-27.863-27.894-73.097 0-100.976 27.893-27.863 73.173-27.863 101.066 0 27.894 27.864 27.894 73.098 0 100.976-27.893 27.864-73.173 27.864-101.066 0zm98.421-2.645c26.427-26.412 26.427-69.273 0-95.685-26.427-26.412-69.349-26.412-95.776 0-26.427 26.412-26.427 69.273 0 95.685 26.427 26.412 69.349 26.412 95.776 0z" fill="#0285AD"/><path fill-rule="evenodd" clip-rule="evenodd" d="M141.581 95.261c-6.833-6.833-6.833-17.93 0-24.764a17.422 17.422 0 017.454-4.414 67.89 67.89 0 01-.514 33.442 17.49 17.49 0 01-6.94-4.264z" fill="#07AADC"/><path fill-rule="evenodd" clip-rule="evenodd" d="M148.521 99.525a68.068 68.068 0 00.514-33.442 18.176 18.176 0 013.688-.665 71.841 71.841 0 01-.529 34.878 18.89 18.89 0 01-3.673-.771z" fill="#006685"/><path fill-rule="evenodd" clip-rule="evenodd" d="M144.046 72.962c5.472-5.473 14.377-5.473 19.85 0 5.473 5.472 5.473 14.362 0 19.835-5.473 5.473-14.378 5.473-19.85 0-5.473-5.473-5.473-14.362 0-19.835z" fill="#74D70B"/><path fill-rule="evenodd" clip-rule="evenodd" d="M147.901 84.709h13.138v-3.22h-13.138v3.22z" fill="#fff"/><path fill-rule="evenodd" clip-rule="evenodd" d="M156.08 89.668V76.529h-3.22v13.139h3.22z" fill="#fff"/><path fill-rule="evenodd" clip-rule="evenodd" d="M131.331 11.067c2.797-2.797 7.347-2.797 10.159 0a7.18 7.18 0 010 10.144c-2.796 2.797-7.347 2.797-10.159 0a7.154 7.154 0 010-10.144z" fill="#74D70B"/><path fill-rule="evenodd" clip-rule="evenodd" d="M133.296 17.069h6.728v-1.633h-6.728v1.633z" fill="#fff"/><path fill-rule="evenodd" clip-rule="evenodd" d="M137.484 19.609v-6.713h-1.648v6.713h1.648z" fill="#fff"/><path fill-rule="evenodd" clip-rule="evenodd" d="M31.11 76.666a9.672 9.672 0 0113.683 0c3.78 3.764 3.78 9.902 0 13.667a9.672 9.672 0 01-13.682 0c-3.765-3.78-3.765-9.903 0-13.667z" fill="#07AADC"/><path fill-rule="evenodd" clip-rule="evenodd" d="M32.88 78.42c2.796-2.798 7.347-2.798 10.16 0 2.796 2.796 2.796 7.347 0 10.144-2.798 2.797-7.348 2.797-10.16 0-2.797-2.797-2.797-7.348 0-10.145z" fill="#74D70B"/><path fill-rule="evenodd" clip-rule="evenodd" d="M34.845 84.436h6.728V82.79h-6.728v1.647z" fill="#fff"/><path fill-rule="evenodd" clip-rule="evenodd" d="M39.033 86.977v-6.728h-1.648v6.728h1.648z" fill="#fff"/><path fill-rule="evenodd" clip-rule="evenodd" d="M126.251 142.824a8.55 8.55 0 0112.095 0c3.341 3.341 3.341 8.754 0 12.08a8.55 8.55 0 01-12.095 0c-3.341-3.342-3.341-8.754 0-12.08z" fill="#74D70B"/><path fill-rule="evenodd" clip-rule="evenodd" d="M128.594 149.975h7.998v-1.965h-7.998v1.965z" fill="#fff"/><path fill-rule="evenodd" clip-rule="evenodd" d="M133.568 152.999v-7.998h-1.95v7.998h1.95z" fill="#fff"/><path fill-rule="evenodd" clip-rule="evenodd" d="M106.174 139.453l-3.145-7.847a52.798 52.798 0 009.117-4.747l4.581 7.106a60.411 60.411 0 01-10.553 5.488zm16.676-10.024l-5.458-6.455a53.371 53.371 0 003.477-3.19 55.659 55.659 0 002.056-2.162l6.335 5.609a54.388 54.388 0 01-2.404 2.524 64.887 64.887 0 01-4.006 3.674z" fill="#03ADE2"/><path fill-rule="evenodd" clip-rule="evenodd" d="M45.67 42.876l-5.851-6.108A62.006 62.006 0 0163.57 22.602l2.63 8.028a53.427 53.427 0 00-20.53 12.246z" fill="#36D0FF"/><path fill-rule="evenodd" clip-rule="evenodd" d="M2.688 26.593a9.17 9.17 0 0112.972 0 9.17 9.17 0 010 12.972 9.17 9.17 0 01-12.972 0c-3.583-3.583-3.583-9.404 0-12.972z" fill="#74D70B"/><path fill-rule="evenodd" clip-rule="evenodd" d="M5.198 34.274h8.587v-2.102H5.198v2.102z" fill="#fff"/><path fill-rule="evenodd" clip-rule="evenodd" d="M10.55 37.509v-8.587H8.448v8.587h2.102z" fill="#fff"/></svg>